<svg version="1.1" id="Layer_1" xmlns="http://www.w3.org/2000/svg" xmlns:xlink="http://www.w3.org/1999/xlink" x="0px" y="0px" viewBox="0 0 104 30" style="enable-background:new 0 0 104 30;" xml:space="preserve">
 <style type="text/css">
  .st0{fill-rule:evenodd;clip-rule:evenodd;}
 </style>
 <path class="st0" d="M71.8,22c-1.6,1.7-3.6,2.5-5.9,2.5c-2.4,0-4.4-0.8-5.9-2.5c-1.5-1.6-2.3-4.1-2.3-7c0-2.8,0.9-5.3,2.4-6.9
	c1.6-1.7,3.6-2.5,5.9-2.5c2.4,0,4.3,0.9,5.9,2.5c1.5,1.6,2.4,4.1,2.4,6.9C74.2,17.9,73.3,20.4,71.8,22L71.8,22z M50.9,15
	c0,0.1,0,0.3,0,0.4c-2.4-2.2-5.8-3-8-3.4c-3.9-0.8-6.9-1.6-6.9-4.3c0-2,1.8-3.4,5.1-3.1c3.1,0.2,4.4,2.1,4.7,3.9
	c0,0.3,0.2,0.5,0.5,0.5L52,9c0,0,0,0,0.1,0C51.3,10.8,50.9,12.8,50.9,15L50.9,15z M41.5,25.2c-2.7,0-5.6-1-6.3-4.6
	c-0.1-0.4-0.2-0.5-0.5-0.5L29.3,20v-9.4c0.7,2.8,3,4.7,8.1,5.8c3.4,0.8,9.2,1.3,9.2,4.8C46.6,23.5,44.9,25.2,41.5,25.2L41.5,25.2z
	 M14.8,24.5c-4.3,0-8.3-3.4-8.3-9.5c0-4.8,3-9.4,8.3-9.4c2.3,0,8.2,0.8,8.2,9.4C23,23.6,16.9,24.5,14.8,24.5z M80.7,12.7
	c1.2,1.6,3.5,2.8,7.1,3.7c3.4,0.8,9.2,1.3,9.2,4.8c0,2.4-1.8,4.1-5.2,4c-2.7,0-5.6-1-6.3-4.6c-0.1-0.4-0.2-0.5-0.5-0.5l-5-0.1
	c0.5-1.5,0.8-3.2,0.8-5C80.8,14.2,80.8,13.5,80.7,12.7L80.7,12.7z M91.5,30c5.9,0,13-2.2,12.4-9.4c-0.6-6.4-7.2-8-10.6-8.6
	c-3.9-0.8-6.9-1.6-6.9-4.3c0-2,1.8-3.4,5.1-3.1c3.1,0.2,4.4,2.1,4.7,3.9c0.1,0.3,0.2,0.5,0.5,0.5l5.5,0c0.4,0,0.6-0.2,0.5-0.5
	C101.8,1.9,96.2,0,91.1,0C86,0,79.9,1.4,79.4,7.8c0,0.2,0,0.5,0,0.7c-0.8-1.7-2-3.2-3.5-4.6C73.1,1.4,69.7,0,65.9,0h-0.1
	c-1.8,0-3.6,0.3-5.3,1c-1.7,0.7-3.3,1.7-4.7,2.9c-1.4,1.3-2.6,2.7-3.4,4.3C51.3,1.8,45.8,0,40.8,0c-4.7,0-10.3,1.2-11.5,6.3V1.2
	c0-0.3-0.2-0.5-0.5-0.5h-5.2c-0.3,0-0.5,0.2-0.5,0.5v1.4c0,0.2-0.2,0.3-0.3,0.2C20.9,1.4,18.1,0,14.8,0C13,0,11.2,0.3,9.6,1
	C7.9,1.6,6.4,2.6,4.9,3.9C3.3,5.4,2,7.1,1.2,8.9C0.4,10.7,0,12.8,0,15c0,2.1,0.4,4,1.1,5.8c0.7,1.8,1.8,3.4,3.3,4.8
	c1.4,1.5,3.1,2.6,4.8,3.3c1.7,0.7,3.7,1.1,5.7,1.1c3.5,0,6.2-1.5,7.9-2.9c0.2-0.1,0.3-0.1,0.3,0.2v1.4c0,0.3,0.2,0.5,0.5,0.5h5.2
	c0.3,0,0.5-0.2,0.5-0.5v-4.8C31.8,29.7,38,30,41.1,30c5.1,0,11.1-1.6,12.2-6.7c0.5,0.8,1.2,1.6,1.9,2.3c2.8,2.8,6.5,4.3,10.6,4.4
	h0.2c2,0,3.9-0.4,5.6-1.1c1.8-0.8,3.4-1.9,4.8-3.2c1-1,1.9-2.2,2.6-3.4C81,29.6,88.1,30,91.5,30L91.5,30z">
 </path>
</svg>