<svg version="1.1" id="Layer_1" xmlns="http://www.w3.org/2000/svg" xmlns:xlink="http://www.w3.org/1999/xlink" x="0px" y="0px"
	 viewBox="-158.3 146.4 622.4 168.1" enable-background="new -158.3 146.4 622.4 168.1" xml:space="preserve">
<path d="M92,288.2c0,0.4,0.1,1.1,0.1,1.3c0.5,1.9,1.8,3.3,2.5,3.8c2.1,1.3,6.6,0.3,9.1-0.5c0.6,0.4,1,1.2,1.3,1.9
	c0.6,1.1,1,1.9,1.6,2.8c0.3,0.4,0.4,0.6,0.6,0.8c-0.1,0.1,0,0-0.1,0.1c-0.4,0.3-0.7,0.6-1.1,0.8c-1,0.8-1.9,1.5-2.9,1.9
	c-1.3,0.6-2.7,1-4.2,1.4l-0.6,0.1c-0.3,0.1-0.6,0.1-0.9,0.2l-0.1,0c-0.6,0.1-0.9,0.2-1.5,0.2c-1.1,0-2.2-0.2-3.2-0.4
	c-0.6-0.1-1.1-0.2-1.8-0.3c-1.8-0.3-3.6-0.9-5.4-1.6l-0.1-0.1c-0.5-0.2-0.8-0.4-1.1-0.6l-0.8-0.8c-0.7-0.7-1.4-1.4-2.1-2.2
	c-0.1-0.1-0.1-0.1-0.2-0.3l-0.1-0.1c-0.1-0.1-0.1-0.3-0.1-0.4l0-0.1c-0.6-1.6-2.4-6.9-2.2-10.8c0.2-4.7,1.7-8.6,3-10.1l0.1-0.1
	c0.5-0.6,1.1-1.2,1.8-1.8c1.5-1.2,3.1-2.2,4.8-3.3l0.1-0.1c0.5-0.3,1.2-0.4,2.3-0.6c1.4-0.1,3-0.2,5-0.3h0.1c0.6,0,1.4,0.2,2.3,0.5
	c1.2,0.5,2.4,1.1,3.7,2.2c1.2,0.9,2.4,2.1,3.6,3.6c0.1,0.1,0.2,0.3,0.3,0.5c0.1,0.2,0.2,0.3,0.3,0.5c0.9,1.6,0.9,3.4,1.4,5.6
	c0.1,0.4,0.2,2,0.3,2.8v0.1c-0.2,0-0.5,0.1-1.2,0.2c-1,0.2-2,0.3-3.1,0.4c-1,0.1-1.3,0.2-2.4,0.4c-0.8,0.1-1.7,0.1-2.8,0.2
	c-1.7,0.1-3.4,0.1-4.9,0.5l-1.4,0.4L92,288.2L92,288.2z M282.7,286.8l1.4-0.4c1.5-0.4,3.2-0.4,4.9-0.5c1.1,0,2-0.1,2.8-0.2
	c1.1-0.1,2.1-0.3,3.1-0.4c1.1-0.1,1.4-0.2,2.4-0.4c0.7-0.1,1-0.2,1.2-0.2v-0.1c-0.1-0.9-0.2-2.5-0.3-2.8c-0.5-2.2-0.5-4-1.4-5.6
	c-0.1-0.1-0.2-0.3-0.3-0.5c-0.1-0.2-0.2-0.4-0.3-0.5c-1.3-1.5-2.4-2.6-3.6-3.6c-1.3-1-2.5-1.7-3.7-2.2c-0.9-0.4-1.7-0.5-2.3-0.5
	h-0.1c-2,0.1-3.6,0.1-5,0.3c-1.1,0.1-1.7,0.2-2.3,0.6l-0.1,0.1c-1.7,1.1-3.3,2.1-4.8,3.3c-0.7,0.6-1.3,1.2-1.8,1.8l-0.1,0.1
	c-1.3,1.5-2.8,5.4-3,10.1c-0.2,3.9,1.6,9.3,2.2,10.8l0,0.1c0,0.1,0.1,0.3,0.1,0.4l0.1,0.1c0.1,0.1,0.1,0.2,0.2,0.3
	c0.7,0.7,1.4,1.4,2.1,2.2l0.8,0.8c0.3,0.3,0.6,0.5,1.1,0.6l0.1,0.1c1.8,0.7,3.6,1.3,5.4,1.6c0.6,0.1,1.1,0.3,1.8,0.3
	c1,0.1,2.1,0.3,3.2,0.4c0.6,0,0.9,0,1.5-0.2l0.1,0c0.3-0.1,0.6-0.1,0.9-0.2l0.6-0.1c1.6-0.4,2.9-0.8,4.2-1.4c1-0.4,1.9-1.2,2.9-1.9
	c0.4-0.3,0.7-0.6,1.1-0.8l0.1-0.1c-0.2-0.1-0.4-0.4-0.6-0.8c-0.6-0.9-1.1-1.6-1.6-2.8c-0.4-0.7-0.7-1.5-1.3-1.9
	c-2.5,0.8-6.9,1.7-9.1,0.5c-0.7-0.4-2-1.8-2.5-3.8c-0.1-0.2-0.2-0.9-0.1-1.3L282.7,286.8L282.7,286.8z M-16.8,281
	c0.4-1.4,0.6-2.2,1.9-2.9c1.5-1,2.9-0.8,4.2-0.8s4,1.6,5.2,2c0.4-0.4,0.8-1.5,1.3-1.9c0.6-0.6,1.6-2,2.4-2.7
	c0.2-0.1,0.3-0.3,0.5-0.5c-0.1-0.1-0.1-0.1-0.1-0.1c-0.4-0.3-1.4-1.3-1.7-1.6c-0.9-0.7-1.4-1.2-2.5-1.7c-1.3-0.6-2.6-1.1-4.2-1.5
	c-0.2-0.1-0.5-0.1-0.7-0.2c-0.3-0.1-0.5-0.1-0.8-0.2l-0.1,0c-0.6-0.1-1.9-0.1-2.3,0c-1.1,0.2-1.3,0.2-2.4,0.3
	c-0.6,0.1-1.1,0.1-1.7,0.2c-1.8,0.3-3.6,1-5.5,1.7l-0.1,0c-0.5,0.2-0.8,0.4-1.1,0.7c-0.3,0.4-0.6,0.7-1,1.1
	c-0.6,0.7-1.3,1.4-1.9,2.1c-0.1,0.1-0.1,0.2-0.2,0.4l0,0.1c-0.1,0.1-0.1,0.3-0.2,0.5l0,0.1c-0.1,0.3-0.2,0.6-0.3,0.9
	c-0.8,2.3-2.1,5.8-1.9,9.4c0.1,3.3,0.3,5.9,0.8,7.7l0.8,1.7c0,0,0,0.1,0.1,0.1l0.3,0.3l0.1,0.4c0.1,0.1,0.1,0.4,0.2,0.5l0.1,0.1
	c0.1,0.1,0.1,0.3,0.2,0.4c0.7,0.8,1.4,1.6,2.2,2.4l0.7,0.8c0.3,0.3,0.6,0.5,1.1,0.7l0.1,0c1.9,0.7,3.7,1.4,5.5,1.7
	c0.6,0.1,1.2,0.1,1.7,0.2c1.1,0.1,2.1,0.3,3.2,0.5c0.4,0.1,0.8,0,1.5-0.2l0.2,0c0.3-0.1,0.5-0.1,0.8-0.2c0.2-0.1,0.4-0.1,0.7-0.2
	c1.6-0.4,3-0.9,4.2-1.5c1-0.5,1.9-1.2,2.9-2.1c0.4-0.3,0.7-0.6,1.1-0.9c0.1-0.1,0.3-0.3,0.4-0.5c-0.2-0.1-1.2-1.3-1.7-1.6
	c-0.9-0.6-1.5-2-2.6-2.9c-0.6-0.5-0.9-1.3-1.6-1.8c-2.5,0.8-5,2.5-7.1,1.1c-0.7-0.5-2-1.9-2.5-3.9c0-0.1-0.1-0.7-0.1-1.2l0.1-5.7
	C-17,281.7-16.9,281.2-16.8,281L-16.8,281z M261.7,292.5c0-0.6-0.1-1.1-0.1-1.7c-0.1-1.2-0.1-2.4-0.3-3.5c0-0.1,0-0.2-0.1-0.4
	l-0.3-2.1c-0.2-1.1-0.4-2.6-0.6-4.1c-0.4-2.8-0.9-6-1.1-6.7c-0.1-0.7-0.4-1.8-0.5-2.7h-10.7c-0.9-0.1-1.9,0-3,0.3
	c-2,0.4-3.6,0.8-5.2,1.5c-2.1,0.9-4,1.9-5.7,2.9c-1.6,1-2.6,2.2-3.1,3.8c-0.4,1.4-0.8,2.8-1,4.5c-0.2,2,0,3.6,0.9,5.1
	c0.2,0.3,0.4,0.7,0.6,1c0.1,0.2,0.2,0.4,0.4,0.7c1.2,2.3,3.2,4,5.9,5.2c2.5,1.2,5.1,1.7,7.7,1.7h0.4c1.2,0,1.8,0.1,2.7,0l1.9-0.1
	l-2.2,3.4c-0.1,0.2-0.2,0.3-0.3,0.5c-0.8,1-1.8,1.8-2.9,2.4c-2.3,1.3-4.7,1.9-6.6,2.3c-1.8,0.4-3.5,0.6-5.1,0.6
	c0.7,2.4,1.4,4.9,2.1,7.3c0.7-0.1,1.4-0.1,2.1-0.2c0.8-0.1,1.7-0.1,2.5-0.2c1.6-0.1,3.3-0.3,4.9-0.4c0.1,0,0.4-0.1,0.7-0.2
	c0.3-0.1,0.6-0.2,1.1-0.3c2.5-0.6,4.4-1.2,6.1-2c1.3-0.6,2.4-1.3,3.2-2.1c1.5-1.5,2.6-2.8,3.4-4.2l0.2-0.4c0.3-0.4,0.5-0.8,0.6-1.2
	c0.5-2,0.9-4.1,1.3-6.1c0.1-0.6,0.2-1.3,0.2-1.8c0-0.6,0-1.2-0.1-1.9C261.8,293.1,261.7,292.8,261.7,292.5L261.7,292.5z
	 M334.9,277.6c-1-1.8-2.8-4-3.4-4.4c-1.6-0.9-5.1-1.8-6.3-1.9c-0.8-0.1-2.1-0.1-3.6-0.1c-2,0-3.9,0.1-4.2,0.1
	c-0.6,0-1.6,0.1-2.8,0.1c-2.2,0.1-5.8,0.3-6.3,0.4c-1,0.1-2.5,0.2-3.2,0.4l-0.5,28.7l10.5-0.4l0.1-13.5c0-1.7-0.1-2.8-0.1-3.5
	c-0.1-1-0.2-1.8,0.6-2.5c0.3-0.3,0.3-0.4,0.6-0.6c0.3-0.1,0.6-0.4,1.4-0.4c0.2,0,0.6,0,0.8,0c0.4,0,1.1,0,1.7,0.1
	c1.2,0.2,2.6,1.6,3,2.2c0.5,0.8,0.7,1.8,0.7,3.1c0,4,0,11.4,0,15.6l12.1,0.8c0.1-1.8,0.2-4.3,0.5-5.9c0.1-1,0.1-11.1-0.2-13
	C336.1,280.9,335.3,278.3,334.9,277.6L334.9,277.6z M146.3,277.6c-1-1.8-2.8-4-3.4-4.4c-1.6-0.9-5.1-1.8-6.3-1.9
	c-0.8-0.1-2.1-0.1-3.6-0.1c-2,0-3.9,0.1-4.2,0.1c-0.6,0-1.6,0.1-2.7,0.1c-2.2,0.1-5.8,0.3-6.3,0.4c-1,0.1-1.8,0.2-2.5,0.4l-0.6,28.7
	l10.5-0.4l0.1-14.1c0-1.7-0.1-2.8-0.1-3.5c-0.1-1-0.1-1.8,0.6-2.5c0.3-0.3,0.6-0.5,0.9-0.6c0.3-0.1,1-0.3,1.8-0.4c0.2,0-0.8,0-0.6,0
	c0.4,0,1.1,0,1.7,0.1c1.1,0.2,2.6,1.6,3,2.2c0.5,0.8,0.7,1.8,0.7,3.1c0,4,0,12,0,16.2l12.1,0.8c0.1-1.8,0.2-4.3,0.5-5.9
	c0.1-1,0.1-11.1-0.2-13C147.5,280.9,146.7,278.3,146.3,277.6L146.3,277.6z M186.6,277.2c-1-1.8-2.8-4-3.4-4.4
	c-1.6-0.9-5.1-1.8-6.3-1.9c-0.8-0.1-2.1-0.1-3.5-0.1h-1.5l-2.2,0l0-2.1c0.1-3.2,0.1-6.4,0.1-8.3c-1.7-0.1-3.4-0.4-5.2-0.6
	c-1.8-0.3-3-0.5-4.6-0.6c-0.1,2.3-0.9,6.1-1.1,10.2l-0.1,2.5h-0.1l0,2.1c-0.1,3.6-0.3,7.4-0.3,8.9l0,1.6c0,0.7,0,1.4,0,2.1l-0.1,6.6
	c0,0.2,0,0.5,0,0.7c-0.1,0.8-0.1,3-0.1,4.7c0,0.7,0,1.4,0,1.8L171,300l0.1-14.2c0-1.7-0.1-2.8-0.1-3.5c-0.1-1-0.2-1.8,0.6-2.5
	c0.3-0.3,0.6-0.5,0.9-0.6c0.3-0.1,1-0.3,1.8-0.4c0.1,0,0.4,0,0.7,0c0.4,0,1.1,0,1.7,0.1c1.3,0.2,1.9,1.6,2.3,2.2
	c0.5,0.8,0.7,1.8,0.7,3.1c0,4,0,12.2,0,16.4l8,0.6c0.1-1.8,0.2-4.2,0.5-5.9c0.1-1,0.1-11.1-0.2-13
	C187.8,280.5,187,277.9,186.6,277.2L186.6,277.2z M30.5,274.2c-1.6-1.6-3.5-3.4-5.8-3.9c-0.4-0.1-2.6-0.3-6.7-0.3
	c-3.3,0-5.7,0.1-6.3,0.2c-1.2,0.4-4.2,2.2-5.5,3.9c-3.6,4.8-3.8,12.1-3.8,13.1c0.2,1.7,4,11.8,6.1,13.5c1,0.7,8.4,2.8,13.4,2.8
	c0.6,0,1.1,0,1.5-0.1c4-0.6,8.4-4.4,9.2-5.4c0.7-1.6,2.8-12,2.7-13.7C34.6,279.9,33,276.6,30.5,274.2z M63.7,272.2L44.6,273
	l-0.7,38.2l11.7,0.4l-0.2-13.9l1.7-0.3c3.4-0.7,9.1-2.8,9.9-3.4l0.2-0.2c0.9-0.7,3.5-2.8,4.4-4.5c1.6-3,0.9-8.2-1.5-12.2
	C68.3,274.3,66,272.5,63.7,272.2L63.7,272.2z M223,281.7c-0.3-1.3-0.6-2.8-0.9-4.1c0-0.1-0.2-0.4-0.4-0.7l-0.2-0.3
	c-0.6-0.9-1.3-1.9-2.3-2.9c-0.5-0.5-1.2-1-2.1-1.4c-0.9-0.4-4.2-1.1-5.9-1.5c-0.7-0.1-1.3-0.3-1.6-0.4c-0.4-0.1-2.3-0.4-2.7-0.4
	c-0.8-0.1-1.5-0.1-2.2-0.2c-0.9-0.1-1.8-0.1-2.8-0.2c-0.2,0-1.5,0-1.8,0c-0.4,1.4-0.4,2.5-0.4,3.1c0,0.8-0.3,2.8-0.4,3.5
	c1,0.1,2.1-0.2,3.2-0.2c0.5,0,1.3-0.1,1.8,0c1.1,0.1,3,0.3,4.3,1c0.8,0.5,0.9,0.4,1.6,1.1l0.2,0.2c0.3,0.5,0.3,0.6,0.4,2.2
	c0,0.3,0,0.6,0,0.9l-0.2,0.7l-0.2,1.8c-0.3,0.4-0.9,0.3-2.1,0.3h-0.3c-2.1,0-5.5,0.5-7.1,1.2c-1.8,0.8-3.1,2-4,3.5
	c-0.1,0.2-0.2,0.4-0.3,0.5c-0.1,0.3-0.3,0.5-0.4,0.7c-0.5,0.9-0.7,3.1-0.6,4.5c0,0.3,0,0.5,0,0.7c0,0,0,0.1,0,0.1
	c0.5,1.4,0.8,2.2,1.5,3.3c0.2,0.4,1.4,1.7,2.4,2.1c1.1,0.5,2.4,0.8,3.6,1c0.7,0.1,1.4,0.2,2,0.2l16.9-0.5c0.1-0.5,0.2-1.1,0.3-1.5
	c0.1-0.5,0.1-3.2,0.1-5.2v-3.3l0.4-2.5c0-0.1,0-0.1,0-0.2c0.1-0.8,0.1-1.6,0.2-2.5c0-0.4,0-0.8,0.1-1.2l0-0.6c0-0.5,0.1-0.9,0.1-1.4
	c0-0.4-0.1-0.8-0.1-1.2L223,281.7L223,281.7z M247.1,181.5c0,7.4-1.1,14.7-1.1,22c0.1,6.9,0.2,13.7-0.2,20.5
	c-0.2,2.4-0.2,4.9-0.2,7.3c0,1,0.2,1.2,1.2,1.3c0.2,0,0.5,0,0.7,0c2.7,0,5.5-0.1,8.2-0.1c5-0.1,10.1-0.2,15.1-0.3
	c1.3,0,1.3-0.1,1.2-1.3c-0.2-2.8-0.4-5.7-0.6-8.6c-0.1-2.8-0.2-5.6-0.3-8.3c-0.3-5.7-0.6-11.4-0.8-17.1c-0.3-5.7-0.5-11.5-0.8-17.3
	c0-0.3-0.1-0.7-0.2-1.1c-7.8,0.2-14.3,0.9-22.1,1.5C247.1,180.5,247.1,181,247.1,181.5L247.1,181.5z M387.1,202.3
	c3.8-0.6,6.9-0.6,10.3-1.2c3.5-0.6,1.5-0.3,5-1.1c-0.2-1.5-0.4-7.1-0.7-8.5c-0.8-3.7-2.1-7.2-3.8-10.5c-0.4-0.7-0.7-1.5-1.2-2.1
	c-1.9-2.5-4-4.8-6.5-6.8c-2.1-1.7-4.4-3.3-6.9-4.3c-1.7-0.7-3.5-1.2-5.4-1.1c-2.8,0.1-5.6,0.2-8.4,0.5c-1.8,0.2-3.7,0.4-5.3,1.5
	c-2.9,2-5.7,3.9-8.4,6.2c-1.3,1.1-2.5,2.3-3.5,3.7c-2.7,3.2-5.3,10.8-5.7,19.5c-0.4,7.2,2.5,16.5,3.8,20.1c0.1,0.4,0.3,0.9,0.5,1.3
	c0,0.1,0.1,0.2,0.1,0.2v0c0.2,0.4,0.5,0.9,0.8,1.3c1.6,1.8,3.2,3.5,4.7,5.2c0.8,0.9,1.9,1.6,3.1,2c3.2,1.2,6.4,2.5,9.8,3
	c2.6,0.4,5.3,0.6,7.9,1.1c1.5,0.3,2.9-0.1,4.3-0.4c0.8-0.2,1.6-0.4,2.4-0.6c2.6-0.7,5.1-1.5,7.5-2.6c2.8-1.3,5-3.5,7.4-5.4
	c0.4-0.3,2.9-3.6,3.2-4c-3.3-2.1-1.4-0.9-4.6-2.9c-3-1.9-6.5-5-9.5-6.9c-3.8,1.7-7.2,1.4-10.2-0.4c-0.4-0.2-2-1.8-2.7-4.4
	c0-0.1-0.1-1-0.1-1.1C378.4,202.4,383.6,202.8,387.1,202.3L387.1,202.3z M257.4,172.7c3.2-0.3,9.1-2.2,9.9-6
	c0.6-3.2,1.1-6.7,1.1-10.5c0-3.5-4.2-7.3-7.6-9.2c-1.1-0.6-2.3-0.6-3.4-0.6c-2.9,0-5.4,1.6-7.7,3.5c-3.2,2.5-5.2,7.6-5.2,12.1
	c0,1.6,0.3,3.2,0.8,4.5C246.8,170.5,252.5,173.7,257.4,172.7L257.4,172.7z M464,182.8c-0.1-1.8-0.3-10.6-0.5-12.5
	c-0.1-0.5-0.2-1-0.9-1.1c-1.1-0.2-44.8,3.1-44.8,3.1c-1.3,4.2-4.2,31.6-4.2,31.6h0.1c-0.3,2.7-0.5,5.5-0.7,8.1
	c-0.4,6.1-1,12.1-1.4,18.2c0,0.3,0,0.6,0,1c7.1,1,16.8,1.7,23.9,1.8l0.7-21.4c0,0,0.8-21.1,0.8-23.5c0,0,5.6,1.3,9.6,4
	c4.2,1,10.5,0.8,17.6,0.8C464.1,192.4,464,183.4,464,182.8L464,182.8z M337.2,203.8c-0.1-0.4-0.1-0.8-0.2-1.3h0.1
	c-0.4-2.7-2.8-19.3-3.3-22c-0.4-2.7-1.5-7.6-1.5-7.6h-20.1c-1.9-0.1-3.9,0.1-5.8,0.5c-3.1,0.7-6.2,1.5-9.1,2.8
	c-3.4,1.6-6.6,3.3-9.7,5.4c-3,2.1-5.3,4.8-6.4,8.4c-0.8,2.8-1.4,5.6-1.7,8.5c-0.4,3.8,0,7.4,1.8,10.8c0.5,0.9,0.9,1.9,1.4,2.9
	c2.5,4.8,6.4,8.2,11.2,10.5c4.5,2.2,9.4,3.4,14.5,3.4c0.4,0,0.9-0.1,1.3,0.4c-0.1,0.2-0.2,0.4-0.3,0.5c-1.1,1.3-2.4,2.4-3.8,3.3
	c-3,1.8-6.4,2.8-9.8,3.6c-3.4,0.8-6.9,1-10.3,1.2c-0.5,0-1,0.1-1.7,0.1c0.1,0.6,0.2,0.9,0.3,1.3c1.6,5.7,3.1,11.5,4.6,17.3
	c0.2,0.9,0.3,1,1.3,0.9c1.8-0.1,3.5-0.3,5.3-0.5c4-0.4,8.1-0.8,12.1-1.2c1.2-0.1,2.3-0.7,3.4-1c3.7-0.9,7.3-2.1,10.7-3.7
	c2.3-1.1,4.5-2.5,6.2-4.4c2.3-2.4,4.4-5.1,6.1-8c0.6-1.1,1.3-2.3,1.7-3.5c0.8-3.6,1.5-7.2,2.2-10.8c0.2-1.3,0.4-2.5,0.4-3.8
	c0-1.7-0.1-3.3-0.3-5C337.5,209.9,337.5,206.8,337.2,203.8L337.2,203.8z M236.3,235.9l-6.5,1c-1,0.4-2,0.2-3,0.1
	c-3.9-0.3-7.7-0.9-11.4-2.5c-1.8-0.8-3.6-1.6-5.2-2.9c-2.1-1.7-4.1-3.5-6.2-5.2c-1.9-1.6-3.1-3.8-4.3-5.9c-2.2-4-3.4-6.4-4.5-10.4
	c-0.5-1.9-0.4-5-0.7-7.1c-0.1-0.4-0.4-6.3-0.6-12.8l-10.8-0.3l0.5-17.7l9.6-0.6c0.1-4.4,0.2-8.8,0.3-13.1c0-0.3,0-0.6,0-0.8
	c0-0.5,0.3-0.7,0.8-0.8c2.4-0.2,4.8-0.4,7.2-0.6c5.3-0.5,10.7-1.1,16.1-1.6c2-0.2,3-0.4,5.1-0.5c0.3,0,0.6,0,1.2,0.1
	c-0.4,5.2-0.6,10.3-0.9,15.6c5-0.2,10.1-0.7,15.1-1c0.1,0.9,0.2,1.7,0.2,2.5c0.2,6.1,0.3,14,0.5,20.1c0,1.1-15.7-0.8-16.2-0.6
	c0.9,6.1,1.4,15.7,2.5,22.9l5.5,2.1l5.1,1.2L236.3,235.9L236.3,235.9z M207.3,180.2c0-1-0.3-2-0.6-3c-0.2-0.6-1.5-1.8-1.5-1.8
	s-2.3-0.9-4.1-1.1c-1.5-0.1-8.5,1.7-8.5,1.7s-1.3,1.7-1.3,2.4c0,0.7,0.4,3.8,0.4,3.8s0.4,1.6,1.1,1.8s5.4,0.2,5.4,0.2
	s0.5-0.1,1.3-0.1c-0.1-0.1-0.1-0.1-0.2-0.2c-0.8-1.1-1.2-2.5-0.9-3.9c0.3-1.2,2.4-2.6,4.6-2.6c2.2,0,2.9,1.9,3.1,2.4
	c0.3,0.9,0.5,1.9,0.4,2.8C206.7,182,207.3,180.9,207.3,180.2z M220.8,177.4c0.8-0.3,1.8-0.5,2.5-0.3c0.9,0.2,1.7,0.8,2.3,1.5
	c0.4,0.4,0.7,0.8,1,1.3c0.4,0.9,0.6,1.9,0.3,2.9c0.8-0.7,1.1-2.9,1.1-2.9s0.1-1.9-0.6-3.2c-1.2-2-5.1-3.1-5.9-3.1s-4.3-0.1-4.7,0
	c-0.4,0.1-3.8,1.4-3.8,1.4s-1.6,1.3-1.8,1.6c-0.2,0.3,0.2,3.9,0.2,3.9s0.6,3,0.8,3.1c0.2,0.1,5,0.6,5,0.6h2.2
	c-0.8-1.2-1.1-3.1-0.7-4.5C218.9,178.6,219.6,177.8,220.8,177.4L220.8,177.4z M159.6,218c0-1.7-0.1-3.3-0.3-5
	c-0.2-3.1-0.2-6.2-0.6-9.3c-0.1-0.4-0.1-0.8-0.2-1.3h0.1c-0.4-2.7-2.8-19.3-3.3-22c-0.4-2.7-1.5-7.6-1.5-7.6h-20.1
	c-1.9-0.1-3.9,0.1-5.8,0.5c-3.1,0.7-6.2,1.5-9.1,2.8c-3.4,1.6-6.6,3.3-9.7,5.4c-3,2.1-5.3,4.8-6.4,8.4c-0.8,2.8-1.4,5.6-1.7,8.5
	c-0.4,3.8,0,7.4,1.8,10.8c0.5,0.9,0.9,1.9,1.4,2.9c2.5,4.8,6.4,8.2,11.2,10.5c4.5,2.2,9.4,3.4,14.5,3.4c0.4,0,0.9-0.1,1.3,0.4
	c-0.1,0.2-0.2,0.4-0.3,0.5c-1.1,1.3-2.4,2.4-3.8,3.3c-3,1.8-6.4,2.8-9.8,3.6c-3.4,0.8-6.9,1-10.3,1.2c-0.5,0-1,0.1-1.7,0.1
	c0.1,0.6,0.2,0.9,0.3,1.3c1.6,5.7,3.1,11.5,4.6,17.3c0.2,0.9,0.3,1,1.3,0.9c1.8-0.1,3.5-0.3,5.3-0.5c4-0.4,8.1-0.8,12.1-1.2
	c1.2-0.1,2.3-0.7,3.4-1c3.7-0.9,7.3-2.1,10.7-3.7c2.3-1.1,4.5-2.5,6.2-4.4c2.3-2.4,4.4-5.1,6.1-8c0.6-1.1,1.3-2.3,1.7-3.5
	c0.8-3.6,1.5-7.2,2.2-10.8C159.5,220.5,159.6,219.3,159.6,218z M-27,253.8c0-7.1,1.5-21,1.5-21s14-48.6,16-55.3
	c-4.2-0.3-4.7-0.3-21.7-2.8h-2.9c-0.6,2.4-1.5,7.2-1.9,8.8c-1.1,5-2.5,12.7-3.8,17.8c-3.6-5.7-11.1-18-13.8-24c-1.1-2.4-2-3-3.7-2.2
	c-1.3,0.6-10.2,3.1-10.2,3.1s-3.2,1.7-4,2.1c0,0,18.7,40.4,21.1,48.4c0.4,1.1,0.5,3,0.8,4.6L-51,257C-50.2,256.9-27,253.8-27,253.8
	L-27,253.8z M-3.1,232.8c0.2,0,0.4,0,0.6,0c2.5,0,7.3-0.1,9.8-0.1c4.6-0.1,9.3-0.2,13.9-0.3c1.2,0,1.2-0.1,1.1-1.2
	c-0.2-2.6-0.4-10.6-0.5-13.3c-0.1-2.5-0.2-5.1-0.3-7.7c-0.2-5.2-0.5-10.5-0.8-15.8c-0.2-5.3-0.5-14-0.7-19.3c0-0.3-0.1-0.6-0.2-1
	c-7.1,0.2-15.3,0.8-22.5,1.3c-0.1,0.5-0.1,0.9-0.1,1.4c0,6.8-1.1,17-1,23.7c0.1,6.3,0.2,12.6-0.2,18.9c-0.1,2.2-0.1,9.9-0.2,12.1
	C-4.2,232.6-4,232.8-3.1,232.8L-3.1,232.8z M-75.5,217.9c-0.1-2.5,0.3-5.1,0.1-7.7c-0.2-5.2-0.5-10.5-0.8-15.8s0.4-36.4,0.2-41.7
	c0-0.3-0.1-0.6-0.2-1c-7.1,0.2-17.6,0.8-24.8,1.3c-0.1,0.5-0.1,0.9-0.1,1.4c0,6.8-1.5,39.3-1.4,46.1c0.1,6.3,0.2,12.6-0.2,18.9
	c-0.1,2.2-0.1,9.9-0.2,12.1c0,0.9,0.2,1.1,1.1,1.2c0.2,0,0.4,0,0.6,0c2.5,0,8.5-0.1,11-0.1c4.6-0.1,9.4-0.2,14-0.3
	c1.2,0,1.2-0.1,1.1-1.2C-75.2,228.6-75.4,220.6-75.5,217.9z M4.9,170c1.1,0.6,2.2,0.6,3.3,0.6c2.8,0,5.7-0.1,8-2
	c3-2.5,5.9-6.9,5.9-11.2c0-1.5-0.3-3.1-0.8-4.3c-1.4-4-6.9-6.1-11.7-5.2c-3,0.3-7.4,2.6-8.3,6.3c-0.6,3.1-1.1,5-1.1,8.7
	C0.3,166.4,1.6,168.2,4.9,170L4.9,170z M-111,148.1c-4.2,0-18.8,1.9-20.8,2.8c-1.1,0.5-9.9,6.5-10.6,7.1c-1.3,1-4.2,7-5.2,12
	l-0.3,3.6l-0.2,4.7l-9.9,1l0.2,1.8c0,0-0.1,5.8-0.2,9.3c0,1.1-0.1,2.3-0.1,2.3l-0.2,1.3c2.1,0.1,5.7,0.7,9.3,1.1
	c-0.3,7-0.8,30.6-1,33.3c0,0.2,0,3.5,0,3.7c0,0.4,25.3,0.8,25.7,0.8c0-3.6,0.6-33.6,0.6-37.2v-0.4c5.4,0,11-0.1,11-0.1l0-1.8
	c0,0,0.5-10.2,0.4-14.5c0-0.7-0.1-0.8-0.8-0.9l-8.6-0.1h-0.1v-0.4c0.1-0.4,0.4-3.9,0.4-3.9l0.7-4.7l10.5-4.2
	C-109.8,161.6-110,148.1-111,148.1L-111,148.1z M62.9,203.3c0.1-6-0.7-8.2-0.1-8.2c0,0,0.9-0.4,2.2-0.6c0.4,0,1.9-0.1,2.9,0.1
	c0.6,0.1,2.1,1.5,2.6,2.2c0.5,0.8,0.7,2,0.7,3.6c0,8.7,0.1,30.1,0.1,30.1l18.6,1.8c0.1-0.3,0.3-9.1,1-13.4
	c0.3-1.8,0.1-20.1-0.3-23.6c-0.5-3.6-1.9-8.6-2.8-10.3c-1.8-3.4-5.4-8.2-6.7-9c-3.1-1.8-9.3-3.7-11.9-3.9c-4.2-0.3-12.1-0.1-13.2,0
	c-3.4,0.2-12,0.8-13.1,1c-4,0.5-6.7,1.1-7,1l-1,56.4l27.8-0.8L62.9,203.3z"/>
</svg>
