<svg class="c-logo-portal__svg" fill="none" height="76" viewBox="0 0 500 76" width="500" xmlns="http://www.w3.org/2000/svg"><g><path d="M64.6775 0.57852C64.6758 0.560882 64.6705 0.545008 64.6669 0.529134C64.6634 0.51326 64.6616 0.497386 64.6581 0.483276C64.6528 0.465638 64.6458 0.448 64.6387 0.430362C64.6334 0.418016 64.6299 0.405669 64.6246 0.393323C64.6158 0.373921 64.6052 0.358047 64.5946 0.34041C64.5893 0.331591 64.584 0.321008 64.5788 0.312189C64.5682 0.294551 64.5541 0.278677 64.5417 0.262803C64.5347 0.253984 64.5294 0.245165 64.5223 0.236347C64.51 0.222236 64.4959 0.208126 64.4817 0.19578C64.4729 0.186961 64.4659 0.178142 64.4571 0.171087C64.4429 0.15874 64.4271 0.148158 64.4112 0.135811C64.4024 0.128756 64.3936 0.121701 64.383 0.114646C64.3689 0.104063 64.353 0.0970079 64.3371 0.088189C64.3248 0.0811339 64.3142 0.0740788 64.3018 0.0687874C64.2895 0.0617323 64.2754 0.0582048 64.2613 0.0529134C64.2454 0.0458583 64.2313 0.0388032 64.2154 0.0335118C64.2031 0.0299843 64.189 0.0264567 64.1766 0.0229291C64.159 0.0176378 64.1431 0.0123465 64.1255 0.0105827C64.1113 0.0088189 64.0955 0.00705512 64.0814 0.00529134C64.0655 0.00352756 64.0479 0 64.032 0C64.0161 0 64.0002 0 63.9844 0.00176378C63.9685 0.00176378 63.9526 0.00176378 63.9367 0.00352756C63.9191 0.00529134 63.9032 0.0105827 63.8856 0.0141102C63.8715 0.0176378 63.8556 0.0194016 63.8415 0.0229291C63.8256 0.0264567 63.8097 0.0335118 63.7939 0.0405669C63.778 0.0458583 63.7621 0.0511496 63.7462 0.0582048C63.7339 0.0634961 63.7216 0.072315 63.7074 0.0793701C63.6898 0.088189 63.6704 0.0970079 63.6528 0.109354L32.8184 19.8372L38.8046 38.3816L58.2768 36.7819L64.6722 0.784882C64.6758 0.767244 64.6758 0.749607 64.6775 0.731969C64.6793 0.714331 64.6828 0.696693 64.6828 0.679055C64.6828 0.663181 64.6828 0.649071 64.681 0.633197C64.681 0.613796 64.6811 0.596158 64.6775 0.576756V0.57852Z" fill="#003883"></path></g><g><g><path d="M115.196 34.7359C120.799 32.6634 123.179 28.4409 123.179 22.915C123.179 13.4735 115.503 8.33032 103.682 8.33032H87.4092V64.3656H107.827C119.954 64.3656 126.634 59.2224 126.634 48.6292C126.634 41.4135 122.182 36.8083 115.196 34.7359ZM96.1593 16.3908H104.68C110.361 16.3908 114.199 18.9994 114.199 23.8357C114.199 28.134 112.049 31.2806 104.68 31.2806H96.1593V16.389V16.3908ZM107.135 56.3069H96.1593V39.3429H107.135C114.351 39.3429 117.651 42.9498 117.651 47.8637C117.651 52.7776 114.351 56.3087 107.135 56.3087V56.3069Z" fill="#D20073"></path></g><g><path d="M151.69 24.7563C140.868 24.7563 131.733 32.0496 131.733 44.8687V45.3291C131.733 58.5327 141.481 65.4397 151.69 65.4397C161.899 65.4397 171.647 58.531 171.647 45.3291V44.8687C171.647 32.0496 162.513 24.7563 151.69 24.7563ZM163.204 45.3291C163.204 51.3171 159.673 58.0706 151.69 58.0706C143.707 58.0706 140.176 51.3154 140.176 45.3291V44.8687C140.176 38.8049 143.707 32.1254 151.69 32.1254C159.673 32.1254 163.204 38.8031 163.204 44.8687V45.3291Z" fill="#D20073"></path></g><g><path d="M203.577 46.8637C203.577 53.3121 201.12 57.7638 194.674 57.7638C188.227 57.7638 185.77 53.3121 185.77 46.8637V25.9082H177.787V47.9396C177.787 57.7656 183.698 65.4416 194.675 65.4416C205.653 65.4416 211.564 57.7656 211.564 47.9396V25.9082H203.581V46.8637H203.577Z" fill="#D20073"></path></g><g><path d="M218.112 42.6411V64.3638H226.095V42.948C226.095 36.8841 228.475 32.8926 234.923 32.8926H239.145V25.3701H234.923C223.255 25.3701 218.112 32.2012 218.112 42.6411Z" fill="#D20073"></path></g><g><path d="M262.893 42.0274L257.52 40.7222C253.682 39.8015 250.996 38.8808 250.996 36.1928C250.996 33.5048 253.453 31.7411 257.52 31.7411C261.588 31.7411 264.352 33.6601 264.352 36.9601V37.0359H272.028V36.4221C272.028 29.5134 265.81 24.8306 257.52 24.8306C249.231 24.8306 243.012 29.5134 243.012 36.1911C243.012 42.1015 246.85 45.4791 252.684 46.9378L258.365 48.3188C262.817 49.393 265.274 50.9275 265.274 53.7689C265.274 56.9931 262.357 58.5294 257.751 58.5294C252.608 58.5294 249.922 55.5362 249.922 52.0051V51.9275H242.246V52.2344C242.246 60.7552 248.924 65.4363 257.751 65.4363C267.5 65.4363 273.257 60.3707 273.257 53.7689C273.257 47.1671 268.805 43.4825 262.895 42.0239L262.893 42.0274Z" fill="#D20073"></path></g><g><path d="M297.909 24.7563C287.087 24.7563 277.952 32.0496 277.952 44.8687V45.3291C277.952 58.5327 287.701 65.4397 297.909 65.4397C308.118 65.4397 317.866 58.531 317.866 45.3291V44.8687C317.866 32.0496 308.732 24.7563 297.909 24.7563ZM309.423 45.3291C309.423 51.3171 305.892 58.0706 297.909 58.0706C289.926 58.0706 286.395 51.3154 286.395 45.3291V44.8687C286.395 38.8049 289.926 32.1254 297.909 32.1254C305.892 32.1254 309.423 38.8031 309.423 44.8687V45.3291Z" fill="#D20073"></path></g><g><path d="M50.6325 75.0065C50.7771 75.4527 51.4227 75.4086 51.5038 74.9465L58.2802 36.7783L38.8081 38.3781L50.6325 75.0065Z" fill="#D20073"></path></g></g><g><path d="M32.8221 19.8335L38.8083 38.3779L0.488446 41.528C0.0210441 41.5668 -0.185318 40.953 0.209769 40.7008L32.8238 19.8353L32.8221 19.8335Z" fill="#009DE0"></path></g><path d="M329.294 30.0002C332.137 26.9788 336.531 25.4673 342.473 25.4673H345.9V32.8558H342.473C339.374 32.8558 337.012 33.7571 335.388 35.5596C333.763 37.3622 332.95 39.8139 332.95 42.9111V64.1646H325.027V42.6077C325.027 37.2246 326.449 33.0216 329.292 30.0002H329.294Z" fill="#1E3581"></path><path d="M357.897 62.6777C355.079 61.0286 352.819 58.7057 351.117 55.709C349.415 52.7123 348.565 49.2853 348.565 45.4244V44.8141C348.565 40.5987 349.479 36.9953 351.308 33.9986C353.135 31.0037 355.484 28.7426 358.354 27.2187C361.222 25.6965 364.206 24.9346 367.303 24.9346C372.738 24.9346 376.978 26.8395 380.026 30.6475V25.9999H387.643V64.1646H379.72V59.4412C376.572 63.2492 372.305 65.1541 366.924 65.1541C363.725 65.1541 360.716 64.3286 357.897 62.6777ZM358.163 51.2519C358.975 53.1568 360.231 54.7054 361.934 55.8995C363.636 57.0936 365.755 57.6897 368.295 57.6897C370.834 57.6897 372.813 57.0812 374.542 55.8625C376.267 54.6437 377.563 53.0951 378.428 51.2149C379.29 49.3365 379.722 47.3557 379.722 45.2727V45.0434C379.722 42.911 379.29 40.8809 378.428 38.9496C377.563 37.02 376.281 35.4467 374.581 34.2262C372.879 33.0074 370.783 32.3971 368.296 32.3971C364.589 32.3971 361.77 33.6424 359.841 36.131C357.909 38.6197 356.946 41.5899 356.946 45.0434V45.2727C356.946 47.3557 357.352 49.3488 358.165 51.2519H358.163Z" fill="#1E3581"></path><path d="M398.385 32.9704C399.856 30.457 401.851 28.4886 404.364 27.067C406.877 25.6454 409.632 24.9346 412.629 24.9346C418.164 24.9346 422.404 27.2187 425.35 31.7904C428.549 27.2204 432.636 24.9346 437.615 24.9346C442.594 24.9346 446.832 26.4567 449.727 29.5045C452.621 32.5506 454.069 36.5632 454.069 41.5388V64.1628H446.146V41.8439C446.146 39.357 445.345 37.1858 443.747 35.3303C442.148 33.4766 440.104 32.5506 437.615 32.5506C435.126 32.5506 433.082 33.4766 431.482 35.3303C429.882 37.184 429.083 39.3288 429.083 41.7663V64.161H421.161V41.9939C421.161 39.4558 420.36 37.2458 418.762 35.3673C417.162 33.4889 415.118 32.5488 412.629 32.5488C410.14 32.5488 408.096 33.4748 406.496 35.3285C404.897 37.1823 404.098 39.3535 404.098 41.8422V64.161H396.175V41.537C396.175 38.3375 396.91 35.4802 398.385 32.9668V32.9704Z" fill="#1E3581"></path><path d="M470.254 62.6777C467.435 61.0286 465.176 58.7057 463.474 55.709C461.772 52.7123 460.921 49.2853 460.921 45.4244V44.8141C460.921 40.5987 461.835 36.9953 463.664 33.9986C465.491 31.0037 467.841 28.7426 470.71 27.2187C473.578 25.6965 476.563 24.9346 479.66 24.9346C485.094 24.9346 489.334 26.8395 492.382 30.6475V25.9999H500V64.1646H492.077V59.4412C488.928 63.2492 484.662 65.1541 479.281 65.1541C476.081 65.1541 473.072 64.3286 470.254 62.6777ZM470.52 51.2519C471.331 53.1568 472.587 54.7054 474.291 55.8995C475.993 57.0936 478.111 57.6897 480.651 57.6897C483.191 57.6897 485.17 57.0812 486.898 55.8625C488.623 54.6437 489.92 53.0951 490.784 51.2149C491.646 49.3365 492.079 47.3557 492.079 45.2727V45.0434C492.079 42.911 491.646 40.8809 490.784 38.9496C489.92 37.02 488.637 35.4467 486.937 34.2262C485.235 33.0074 483.14 32.3971 480.653 32.3971C476.945 32.3971 474.127 33.6424 472.197 36.131C470.266 38.6197 469.303 41.5899 469.303 45.0434V45.2727C469.303 47.3557 469.709 49.3488 470.522 51.2519H470.52Z" fill="#1E3581"></path></svg>