<svg version="1.1" id="Layer_1" xmlns:x="ns_extend;" xmlns:i="ns_ai;" xmlns:graph="ns_graphs;" xmlns="http://www.w3.org/2000/svg" xmlns:xlink="http://www.w3.org/1999/xlink" x="0px" y="0px" viewBox="0 0 78.4 78.4" style="enable-background:new 0 0 78.4 78.4;" xml:space="preserve">
 <style type="text/css">
  .st0{fill:url(#SVGID_1_);}
	.st1{fill:#FFFFFF;}
 </style>
 <metadata>
  <sfw xmlns="ns_sfw;">
   <slices>
   </slices>
   <sliceSourceBounds bottomLeftOrigin="true" height="78.4" width="78.4" x="35.1" y="-217.5">
   </sliceSourceBounds>
  </sfw>
 </metadata>
 <g>
  <linearGradient id="SVGID_1_" gradientUnits="userSpaceOnUse" x1="0.7278" y1="77.4044" x2="59.1688" y2="19.3498">
   <stop offset="0.289" style="stop-color:#B80919">
   </stop>
   <stop offset="1" style="stop-color:#F00F1F">
   </stop>
  </linearGradient>
  <rect class="st0" width="78.4" height="78.4">
  </rect>
  <polygon class="st1" points="46.5,51.6 64.4,51.6 62,55.4 44.1,55.4 	">
  </polygon>
  <polygon class="st1" points="32.8,67.5 65.5,67.5 63.1,71.3 30.5,71.3 	">
  </polygon>
  <polygon class="st1" points="55.3,33.4 57.7,31.8 63.5,41 55.7,45.9 54.2,43.5 59.5,40.1 	">
  </polygon>
  <polygon class="st1" points="8.1,39.9 33.1,39.9 30.7,43.6 5.7,43.6 	">
  </polygon>
  <path class="st1" d="M52.9,39.8c1.3,0,2.4-1.1,2.4-2.3c0-1.3-1.1-2.4-2.4-2.4c-1.3,0-2.3,1.1-2.3,2.4
		C50.5,38.7,51.6,39.8,52.9,39.8">
  </path>
  <polygon class="st1" points="12.2,33.3 37.2,33.3 34.9,37 9.9,37 	">
  </polygon>
  <polygon class="st1" points="16.3,26.6 41.4,26.6 39,30.3 14,30.3 	">
  </polygon>
  <path class="st1" d="M69.1,2.2C47.2,13,15.5,25.6,15.5,51.2c0,9.5,5.5,16.5,11,19.1l28.2-45.1l-2.2-3.5l-27,43.2
		c-2.8-2.1-6.3-7.4-6.3-14.6c0-19.7,25-32.8,46.5-42.7L69.1,2.2z">
  </path>
 </g>
</svg>