<svg width="69px" height="75px" viewBox="0 0 69 75" version="1.1" xmlns="http://www.w3.org/2000/svg" xmlns:xlink="http://www.w3.org/1999/xlink">
 <!-- Generator: Sketch 52.2 (67145) - http://www.bohemiancoding.com/sketch -->
 <title>
  Logo/HBNK
 </title>
 <desc>
  Created with Sketch.
 </desc>
 <defs>
  <linearGradient x1="50%" y1="0.420096798%" x2="50%" y2="84.3095791%" id="linearGradient-1">
   <stop stop-color="#0AD2E1" offset="0%">
   </stop>
   <stop stop-color="#0080A6" offset="100%">
   </stop>
  </linearGradient>
 </defs>
 <g id="Symbols" stroke="none" stroke-width="1" fill="none" fill-rule="evenodd">
  <g id="Menu_V6/ourOffer" transform="translate(-16.000000, -10.000000)">
   <g id="Menu_V1">
    <g id="Logo/HBNK" transform="translate(16.000000, 10.000000)">
     <g id="Hello_Fins">
      <g id="Calque_1" fill-rule="nonzero">
       <path d="M65.4984959,-1.25028193e-14 L2.90672727,-1.25028193e-14 C1.30170763,0.00528964735 0.00264744777,1.30145074 7.10542736e-14,2.90024038 L7.10542736e-14,61.8425481 C0.00529749636,63.4394605 1.30358555,64.7327039 2.90672727,64.7379808 L6.84028099,64.7379808 L14.4238347,74.6550481 C14.9559504,75.1850962 15.389124,75.0060096 15.389124,74.2560096 L15.389124,64.7379808 L65.4984959,64.7379808 C67.1019116,64.7333598 68.4005842,63.4397334 68.4052231,61.8425481 L68.4052231,2.90024038 C68.4025757,1.30145074 67.1035155,0.00528964735 65.4984959,-1.25028193e-14 Z" id="Shape" fill="url(#linearGradient-1)">
       </path>
       <polygon id="Rectangle-path" fill="#006280" points="6.91267769 15.0240385 9.66375207 15.0240385 9.66375207 15.3641827 6.91267769 15.3641827">
       </polygon>
       <polygon id="Rectangle-path" fill="#006280" points="9.66375207 21.5060096 17.1338843 21.5060096 17.1338843 21.8461538 9.66375207 21.8461538">
       </polygon>
       <polygon id="Rectangle-path" fill="#006280" points="17.1338843 15.0240385 19.8837521 15.0240385 19.8837521 15.3641827 17.1338843 15.3641827">
       </polygon>
       <polygon id="Rectangle-path" fill="#0AD2E1" points="9.66375207 24.3870192 17.1338843 24.3870192 17.1338843 24.7271635 9.66375207 24.7271635">
       </polygon>
       <polygon id="Rectangle-path" fill="#0AD2E1" points="6.91267769 30.9567308 9.66375207 30.9567308 9.66375207 31.296875 6.91267769 31.296875">
       </polygon>
       <polygon id="Rectangle-path" fill="#0AD2E1" points="17.1338843 30.9567308 19.8837521 30.9567308 19.8837521 31.296875 17.1338843 31.296875">
       </polygon>
       <polygon id="Shape" fill="#FFFFFF" points="6.91267769 15.3641827 9.66375207 15.3641827 9.66375207 21.8461538 17.1338843 21.8461538 17.1338843 15.3641827 19.8837521 15.3641827 19.8837521 30.9567308 17.1338843 30.9567308 17.1338843 24.3870192 9.66375207 24.3870192 9.66375207 30.9579327 6.91267769 30.9579327">
       </polygon>
       <path d="M27.2018512,18.9495192 C30.8904628,18.9495192 32.7884628,21.7860577 32.8560331,25.09375 C32.8560331,25.0408654 32.8560331,24.9891827 32.8560331,24.9362981 C32.8560331,21.5504808 30.9556198,18.609375 27.1982314,18.609375 C23.819719,18.609375 21.4282149,21.3737981 21.4282149,24.7391827 L21.4282149,24.7836538 C21.4282149,24.8329327 21.4282149,24.8810096 21.4282149,24.9302885 C21.505438,21.6346154 23.8752231,18.9495192 27.2018512,18.9495192 Z" id="Shape" fill="#006280">
       </path>
       <path d="M30.1761488,24.2524038 C30.1640826,24.1370192 30.1483967,24.0236378 30.1290909,23.9122596 L24.1732562,23.9122596 C24.1507328,24.0236378 24.131427,24.1370192 24.1153388,24.2524038 L30.1761488,24.2524038 Z" id="Shape" fill="#006280">
       </path>
       <path d="M27.5372893,28.6778846 C25.8999174,28.6778846 24.5967769,27.734375 24.2034215,26.0336538 L24.1322314,26.0336538 C24.4242314,27.9495192 25.7877025,29.0192308 27.5312562,29.0192308 C28.8512893,29.0192308 29.7900331,28.5288462 30.7287769,27.6153846 L32.3166777,29.0192308 L32.3166777,28.6778846 L30.7287769,27.2740385 C29.7960661,28.1887019 28.8561157,28.6778846 27.5372893,28.6778846 Z" id="Shape" fill="#006280">
       </path>
       <path d="M27.1801322,21.1538462 C25.5234545,21.1538462 24.3614876,22.4230769 24.1153388,24.2512019 L24.1732562,24.2512019 C24.5111074,22.609375 25.6296364,21.4951923 27.1801322,21.4951923 C28.8500826,21.4951923 29.8563967,22.6802885 30.1290909,24.2512019 L30.1761488,24.2512019 C29.9963636,22.5144231 28.9695372,21.1538462 27.1801322,21.1538462 Z" id="Shape" fill="#0AD2E1">
       </path>
       <path d="M27.4926446,31.2247596 C24.1141322,31.2247596 21.5042314,28.8209135 21.4342479,25.2668269 C21.4342479,25.3173077 21.4342479,25.3665865 21.4342479,25.4170673 L21.4342479,25.4615385 C21.4342479,29.0925481 24.0731074,31.5661058 27.4962645,31.5661058 C29.6681653,31.5661058 31.2078017,30.6971154 32.3227107,29.3605769 L32.3227107,29.0204327 C31.2041818,30.3557692 29.6609256,31.2247596 27.4926446,31.2247596 Z" id="Shape" fill="#0AD2E1">
       </path>
       <path d="M32.8198347,26.0336538 L24.1322314,26.0336538 C24.1503306,26.1538462 24.1720496,26.2644231 24.1973884,26.3737981 L32.8198347,26.3737981 C32.8427603,26.1081731 32.8644793,25.8617788 32.8644793,25.6165865 C32.8644793,25.5552885 32.8644793,25.4963942 32.8644793,25.4338942 C32.8487934,25.6274038 32.8319008,25.8245192 32.8198347,26.0336538 Z" id="Shape" fill="#0AD2E1">
       </path>
       <path d="M21.4318347,25.1201923 L21.4318347,25.0757212 C21.4318347,21.7103365 23.8245455,18.9459135 27.2018512,18.9459135 C30.9592397,18.9459135 32.8596529,21.8882212 32.8596529,25.2728365 C32.8596529,25.5132212 32.8379339,25.7644231 32.8150083,26.0300481 L24.1322314,26.0300481 C24.4242314,27.9459135 25.7877025,29.015625 27.5312562,29.015625 C28.8512893,29.015625 29.7900331,28.5252404 30.7287769,27.6117788 L32.3166777,29.015625 C31.1981488,30.3521635 29.6548926,31.2211538 27.4902314,31.2211538 C24.0706942,31.2247596 21.4318347,28.7512019 21.4318347,25.1201923 Z M30.1761488,24.2524038 C29.9963636,22.5144231 28.9695372,21.1550481 27.1801322,21.1550481 C25.5234545,21.1550481 24.3614876,22.4242788 24.1153388,24.2524038 L30.1761488,24.2524038 Z" id="Shape" fill="#FFFFFF">
       </path>
       <polygon id="Rectangle-path" fill="#006280" points="34.471686 14.3533654 37.1781157 14.3533654 37.1781157 14.6935096 34.471686 14.6935096">
       </polygon>
       <polygon id="Rectangle-path" fill="#0AD2E1" points="34.471686 30.9567308 37.1781157 30.9567308 37.1781157 31.296875 34.471686 31.296875">
       </polygon>
       <polygon id="Shape" fill="#FFFFFF" points="34.471686 14.6935096 37.1781157 14.6935096 37.1781157 30.9567308 34.471686 30.9567308">
       </polygon>
       <polygon id="Rectangle-path" fill="#006280" points="39.5491074 14.3533654 42.2543306 14.3533654 42.2543306 14.6935096 39.5491074 14.6935096">
       </polygon>
       <polygon id="Rectangle-path" fill="#0AD2E1" points="39.5491074 30.9567308 42.2543306 30.9567308 42.2543306 31.296875 39.5491074 31.296875">
       </polygon>
       <polygon id="Shape" fill="#FFFFFF" points="39.5491074 14.6935096 42.2543306 14.6935096 42.2543306 30.9567308 39.5491074 30.9567308">
       </polygon>
       <path d="M50.0743802,18.6081731 C46.4545455,18.6081731 43.7674215,21.3930288 43.7674215,24.7572115 L43.7674215,24.8016827 C43.7674215,24.8509615 43.7674215,24.9002404 43.7674215,24.9495192 C43.8446446,21.6526442 46.5016033,18.9483173 50.0707603,18.9483173 C53.6399174,18.9483173 56.2739504,21.6081731 56.3511736,24.9038462 C56.3511736,24.8545673 56.3511736,24.8064904 56.3511736,24.7560096 L56.3511736,24.7115385 C56.3620331,21.3497596 53.7014545,18.6081731 50.0743802,18.6081731 Z" id="Shape" fill="#006280">
       </path>
       <path d="M46.4774711,25.0985577 C46.4774711,27.1478365 47.9772893,28.8858173 50.078,28.8858173 C52.2704132,28.8858173 53.6568099,27.171875 53.6568099,25.1430288 L53.6568099,25.0985577 C53.6568099,25.0504808 53.6568099,25.0024038 53.6568099,24.9543269 C53.5892397,26.9146635 52.2185289,28.5444712 50.0804132,28.5444712 C48.0291736,28.5444712 46.5510744,26.8870192 46.4835041,24.9002404 C46.4835041,24.9519231 46.4835041,25.0024038 46.4835041,25.0540865 L46.4774711,25.0985577 Z" id="Shape" fill="#006280">
       </path>
       <path d="M53.6568099,25.0985577 C53.6568099,23.0264423 52.1581983,21.3112981 50.0369752,21.3112981 C47.8650744,21.3112981 46.4810909,23.0060096 46.4810909,25.0540865 L46.4810909,25.0985577 C46.4810909,25.1466346 46.4810909,25.1935096 46.4810909,25.2415865 C46.5486612,23.2620192 47.9193719,21.6526442 50.034562,21.6526442 C52.1099339,21.6526442 53.5868264,23.2896635 53.6543967,25.2956731 C53.6543967,25.2451923 53.6543967,25.1947115 53.6543967,25.1442308 L53.6568099,25.0985577 Z" id="Shape" fill="#0AD2E1">
       </path>
       <path d="M50.0333554,31.2247596 C46.4859174,31.2247596 43.8518843,28.5649038 43.7746612,25.2908654 C43.7746612,25.3401442 43.7746612,25.3894231 43.7746612,25.4387019 L43.7746612,25.4807692 C43.7746612,28.8221154 46.4364463,31.5625 50.0369752,31.5625 C53.6821488,31.5625 56.3656529,28.7788462 56.3656529,25.4326923 L56.3656529,25.3882212 C56.3656529,25.3377404 56.3656529,25.2884615 56.3656529,25.2391827 C56.2799835,28.5216346 53.6242314,31.2247596 50.0333554,31.2247596 Z" id="Shape" fill="#0AD2E1">
       </path>
       <path d="M43.7710413,25.1430288 L43.7710413,25.0985577 C43.7710413,21.7331731 46.4545455,18.9495192 50.078,18.9495192 C53.7014545,18.9495192 56.3620331,21.6899038 56.3620331,25.0540865 L56.3620331,25.0985577 C56.3620331,28.4411058 53.6785289,31.2283654 50.0333554,31.2283654 C46.4316198,31.2247596 43.7710413,28.4855769 43.7710413,25.1430288 Z M53.6568099,25.1430288 L53.6568099,25.0985577 C53.6568099,23.0264423 52.1581983,21.3112981 50.0369752,21.3112981 C47.8650744,21.3112981 46.4810909,23.0060096 46.4810909,25.0540865 L46.4810909,25.0985577 C46.4810909,27.1478365 47.9809091,28.8858173 50.0816198,28.8858173 C52.2704132,28.8858173 53.6568099,27.1706731 53.6568099,25.1430288 Z" id="Shape" fill="#FFFFFF">
       </path>
       <polygon id="Rectangle-path" fill="#006280" points="58.9321157 33.4110577 61.6385455 33.4110577 61.6385455 33.7512019 58.9321157 33.7512019">
       </polygon>
       <polygon id="Rectangle-path" fill="#0AD2E1" points="58.9321157 45.8653846 61.6385455 45.8653846 61.6385455 46.2055288 58.9321157 46.2055288">
       </polygon>
       <polygon id="Shape" fill="#FFFFFF" points="58.9321157 33.7512019 61.6385455 33.7512019 61.6385455 45.8653846 58.9321157 45.8653846">
       </polygon>
       <polygon id="Rectangle-path" fill="#006280" points="58.9321157 47.0276442 61.6385455 47.0276442 61.6385455 47.3677885 58.9321157 47.3677885">
       </polygon>
       <polygon id="Rectangle-path" fill="#0AD2E1" points="58.9321157 49.7512019 61.6385455 49.7512019 61.6385455 50.0913462 58.9321157 50.0913462">
       </polygon>
       <polygon id="Shape" fill="#FFFFFF" points="58.9321157 47.3677885 61.6385455 47.3677885 61.6385455 49.7512019 58.9321157 49.7512019">
       </polygon>
       <polygon id="Rectangle-path" fill="#006280" points="32.5857521 37.6670673 35.2921818 37.6670673 35.2921818 38.0072115 32.5857521 38.0072115">
       </polygon>
       <path d="M38.9832066,37.421875 C37.1503636,37.421875 36.0535537,38.3834135 35.2933884,39.4939904 L35.2933884,39.8353365 C36.0547603,38.7211538 37.1503636,37.7632212 38.9832066,37.7632212 C41.6449917,37.7632212 43.1882479,39.5456731 43.1882479,42.2860577 L43.1882479,41.9471154 C43.1882479,39.2043269 41.6449917,37.421875 38.9832066,37.421875 Z" id="Shape" fill="#006280">
       </path>
       <path d="M40.4818182,43.0865385 C40.4818182,41.2608173 39.5647934,40.2139423 37.9479339,40.2139423 C36.3793388,40.2139423 35.2873554,41.3052885 35.2873554,43.1322115 L35.2873554,43.4735577 C35.2873554,41.6466346 36.3829587,40.5552885 37.9479339,40.5552885 C39.5587603,40.5552885 40.4818182,41.6021635 40.4818182,43.4278846 L40.4818182,43.0865385 Z" id="Shape" fill="#0AD2E1">
       </path>
       <polygon id="Rectangle-path" fill="#0AD2E1" points="32.5857521 49.7704327 35.2921818 49.7704327 35.2921818 50.1105769 32.5857521 50.1105769">
       </polygon>
       <polygon id="Rectangle-path" fill="#0AD2E1" points="40.4818182 49.7704327 43.1882479 49.7704327 43.1882479 50.1105769 40.4818182 50.1105769">
       </polygon>
       <path d="M32.5857521,38.0072115 L35.2933884,38.0072115 L35.2933884,39.8341346 C36.0547603,38.7199519 37.1503636,37.7620192 38.9832066,37.7620192 C41.6449917,37.7620192 43.1882479,39.5444712 43.1882479,42.2848558 L43.1882479,49.7692308 L40.4818182,49.7692308 L40.4818182,43.0865385 C40.4818182,41.2608173 39.5647934,40.2139423 37.9479339,40.2139423 C36.3793388,40.2139423 35.2873554,41.3052885 35.2873554,43.1322115 L35.2873554,49.7704327 L32.5857521,49.7704327 L32.5857521,38.0072115 Z" id="Shape" fill="#FFFFFF">
       </path>
       <polygon id="Shape" fill="#006280" points="47.8385289 43.2211538 52.7361653 38.0072115 56.0229752 38.0072115 56.0229752 37.6670673 52.7361653 37.6670673 47.8385289 42.8810096">
       </polygon>
       <polygon id="Shape" fill="#006280" points="51.4643967 42.65625 51.3256364 42.7980769 56.1786281 49.7704327 56.1786281 49.4290865">
       </polygon>
       <polygon id="Rectangle-path" fill="#006280" points="45.1320992 33.4110577 47.8385289 33.4110577 47.8385289 33.7512019 45.1320992 33.7512019">
       </polygon>
       <polygon id="Shape" fill="#0AD2E1" points="51.4643967 42.9963942 56.0229752 38.3485577 56.0229752 38.0072115 51.3256364 42.7980769">
       </polygon>
       <polygon id="Shape" fill="#0AD2E1" points="53.0486777 49.7704327 49.4927934 44.6911058 47.8385289 46.40625 47.8385289 46.7475962 49.4927934 45.0324519 53.0486777 50.1105769 56.1786281 50.1105769 56.1786281 49.7704327">
       </polygon>
       <polygon id="Rectangle-path" fill="#0AD2E1" points="45.1320992 49.7704327 47.8385289 49.7704327 47.8385289 50.1105769 45.1320992 50.1105769">
       </polygon>
       <polygon id="Shape" fill="#FFFFFF" points="45.1272727 33.7512019 47.8337025 33.7512019 47.8337025 43.2211538 52.7313388 38.0072115 56.0229752 38.0072115 51.3256364 42.796875 56.1786281 49.7680288 53.0486777 49.7680288 49.4927934 44.6887019 47.8385289 46.40625 47.8385289 49.7716346 45.1272727 49.7716346">
       </polygon>
       <path d="M13.3740826,47.7091346 C15.4699669,47.7091346 17.1145785,46.2668269 17.1145785,43.9459135 L17.1145785,43.9002404 C17.1145785,43.8509615 17.1145785,43.8028846 17.1145785,43.7536058 C17.044595,45.9831731 15.4253223,47.3677885 13.3740826,47.3677885 C12.5391074,47.3677885 11.030843,47.2560096 9.6154876,46.0456731 L9.6154876,46.3846154 C11.0296364,47.5961538 12.5379008,47.7091346 13.3740826,47.7091346 Z" id="Shape" fill="#006280">
       </path>
       <polygon id="Rectangle-path" fill="#006280" points="6.91267769 33.3617788 9.61669421 33.3617788 9.61669421 33.7019231 6.91267769 33.7019231">
       </polygon>
       <path d="M13.621438,37.4555288 C11.9104628,37.4555288 10.2586116,38.1971154 9.61669421,38.5372596 L9.61669421,38.8774038 C10.2586116,38.5384615 11.9092562,37.7956731 13.621438,37.7956731 C16.811719,37.7956731 19.4216198,39.9447115 19.4891938,43.7512019 C19.4891901,43.7019231 19.4891901,43.6538462 19.4891901,43.6045673 L19.4891901,43.5588942 C19.4928099,39.6634615 16.8539504,37.4555288 13.621438,37.4555288 Z" id="Shape" fill="#006280">
       </path>
       <polygon id="Shape" fill="#0AD2E1" points="9.6154876 46.3870192 9.6154876 45.8365385 9.6154876 45.4963942 9.6154876 46.3870192">
       </polygon>
       <path d="M13.621438,50.0492788 C11.6908595,50.0492788 8.79499174,49.5685096 6.91267769,46.9122596 L6.91267769,47.2524038 C8.79740496,49.9086538 11.6944793,50.3894231 13.621438,50.3894231 C16.8225785,50.3894231 19.4916033,48.1826923 19.4916033,44.2860577 L19.4916033,44.2403846 C19.4916033,44.1899038 19.4916033,44.1418269 19.4916033,44.0925481 C19.4264463,47.8966346 16.7827603,50.0492788 13.621438,50.0492788 Z" id="Shape" fill="#0AD2E1">
       </path>
       <path d="M17.1181983,43.9002404 C17.1181983,41.6286058 15.4699669,40.1370192 13.3777025,40.1370192 C12.0382384,40.1463653 10.7314314,40.5498888 9.62152066,41.296875 L9.62152066,41.6370192 C10.7314629,40.8900983 12.0382496,40.4865811 13.3777025,40.4771635 C15.4289421,40.4771635 17.0494215,41.90625 17.1181983,44.0949519 C17.1181983,44.0456731 17.1181983,43.9963942 17.1181983,43.9459135 L17.1181983,43.9002404 Z" id="Shape" fill="#0AD2E1">
       </path>
       <path d="M13.621438,37.7956731 C11.9104628,37.7956731 10.2586116,38.5372596 9.61669421,38.8774038 L9.61669421,33.7091346 L6.91267769,33.7091346 L6.91267769,46.9182692 C8.79740496,49.5745192 11.6944793,50.0552885 13.621438,50.0552885 C16.8225785,50.0552885 19.4916033,47.8485577 19.4916033,43.9519231 L19.4916033,43.90625 C19.4928099,40.0012019 16.8539504,37.7956731 13.621438,37.7956731 Z M17.1206116,43.9459135 C17.1206116,46.2620192 15.4723802,47.7091346 13.3801157,47.7091346 C12.5439339,47.7091346 11.036876,47.5973558 9.62031405,46.3870192 L9.62031405,45.4963942 L9.62031405,41.296875 C10.7302248,40.5498888 12.0370318,40.1463653 13.3764959,40.1370192 C15.4723802,40.1370192 17.1169917,41.6298077 17.1169917,43.9002404 L17.1206116,43.9459135 Z" id="Shape" fill="#FFFFFF">
       </path>
       <path d="M25.0830413,42.2644231 C26.19119,42.2447531 27.2948204,42.4101013 28.3481322,42.7536058 L28.3481322,42.53125 C28.3481322,42.4903846 28.3481322,42.4519231 28.3481322,42.4110577 C27.2969891,42.0691426 26.1958723,41.9046169 25.090281,41.9242788 C22.338,41.9242788 20.3639835,43.3930288 20.3639835,45.9987981 L20.3639835,46.0432692 C20.3639835,46.0889423 20.3639835,46.1334135 20.3639835,46.1790865 C20.4412066,43.6742788 22.3886777,42.2644231 25.0830413,42.2644231 Z" id="Shape" fill="#006280">
       </path>
       <path d="M22.7036033,46.25 C22.7036033,47.3641827 23.8535041,47.9879808 25.127686,47.9879808 C26.5297686,47.9879808 28.3927769,47.4795673 28.3927769,45.4290865 L28.3927769,45.0889423 C28.3927769,47.1394231 26.5309752,47.6478365 25.127686,47.6478365 C23.9078017,47.6478365 22.8049587,47.0757212 22.7144628,46.0504808 C22.7084951,46.1023593 22.705273,46.1545148 22.7048099,46.2067308 L22.7036033,46.25 Z" id="Shape" fill="#006280">
       </path>
       <path d="M25.8214876,37.4891827 C23.8981488,37.4891827 22.6239669,37.890625 21.3268595,38.4699519 L21.3268595,38.8100962 C22.6251736,38.2307692 23.8993554,37.8293269 25.8214876,37.8293269 C29.3110083,37.8293269 30.9495868,39.9663462 30.9495868,42.796875 L30.9495868,42.4567308 C30.9483802,39.6262019 29.3098017,37.4891827 25.8214876,37.4891827 Z" id="Shape" fill="#006280">
       </path>
       <path d="M22.0628926,41.1887019 C23.1367769,40.7439904 24.1213719,40.4543269 25.441405,40.4543269 C27.2718347,40.4543269 28.2926281,41.2079327 28.3433058,42.7524038 L28.3433058,42.5300481 C28.3433058,40.9038462 27.3140661,40.1129808 25.4365785,40.1129808 C24.1165455,40.1129808 23.1319504,40.4026442 22.0580661,40.8473558 L21.3208264,38.8040865 C21.3313759,38.9172245 21.3313759,39.0310928 21.3208264,39.1442308 L22.0628926,41.1887019 Z" id="Shape" fill="#0AD2E1">
       </path>
       <path d="M25.6851405,44.1574519 C23.9862314,44.1574519 22.7036033,45.0697115 22.7036033,46.2007212 L22.7036033,46.2451923 C22.7036033,46.2932692 22.7036033,46.3389423 22.7132562,46.3858173 C22.8254711,45.3233173 24.0658678,44.4939904 25.6863471,44.4939904 C26.6096187,44.4882672 27.5265167,44.6465949 28.3939835,44.9615385 L28.3939835,44.6213942 C27.5259181,44.3075132 26.6086008,44.1504047 25.6851405,44.1574519 Z" id="Shape" fill="#0AD2E1">
       </path>
       <path d="M28.9212727,49.1754808 C27.7339669,49.9471154 25.7840826,50.0168269 24.5002479,50.0168269 C22.521405,50.0168269 20.4412066,48.7956731 20.3603636,46.5216346 C20.3603636,46.5745192 20.3603636,46.6274038 20.3603636,46.6814904 L20.3603636,46.7259615 C20.3603636,49.0865385 22.4852066,50.3569712 24.5038678,50.3569712 C25.7901157,50.3569712 27.7375868,50.2872596 28.9248926,49.515625 C30.6563802,48.3894231 30.952,46.9242788 30.952,46 L30.952,45.6598558 C30.9483802,46.5841346 30.6479339,48.0492788 28.9212727,49.1754808 Z" id="Shape" fill="#0AD2E1">
       </path>
       <path d="M28.9212727,49.1754808 C27.7339669,49.9471154 25.7840826,50.0168269 24.5002479,50.0168269 C22.4815868,50.0168269 20.3567438,48.7475962 20.3567438,46.3858173 L20.3567438,46.3413462 C20.3567438,43.7355769 22.3307603,42.2668269 25.0830413,42.2668269 C26.19119,42.247157 27.2948204,42.4125052 28.3481322,42.7560096 L28.3481322,42.5336538 C28.3481322,40.9074519 27.3188926,40.1165865 25.441405,40.1165865 C24.1213719,40.1165865 23.1367769,40.40625 22.0628926,40.8509615 L21.3256529,38.8076923 C22.6239669,38.2283654 23.8981488,37.8269231 25.820281,37.8269231 C29.3098017,37.8269231 30.9483802,39.9639423 30.9483802,42.7944712 L30.9483802,45.65625 C30.9483802,46.5841346 30.6479339,48.0492788 28.9212727,49.1754808 Z M28.3927769,44.625 C27.5253168,44.3100316 26.6084142,44.151703 25.6851405,44.1574519 C23.9862314,44.1574519 22.7036033,45.0697115 22.7036033,46.2007212 L22.7036033,46.2451923 C22.7036033,47.359375 23.8535041,47.9831731 25.127686,47.9831731 C26.5297686,47.9831731 28.3927769,47.4747596 28.3927769,45.4242788 L28.3927769,44.625 Z" id="Shape" fill="#FFFFFF">
       </path>
       <path d="M19.5471074,70.5324519 C19.5471074,70.4491445 19.6149048,70.3816106 19.6985372,70.3816106 C19.7821695,70.3816106 19.8499669,70.4491445 19.8499669,70.5324519 L19.8499669,71.6346154 C20.0142735,71.3594654 20.3116617,71.1905808 20.6330579,71.1899038 C21.1157025,71.1899038 21.5983471,71.5733173 21.5983471,72.2379808 L21.5983471,72.2451923 C21.5983471,72.90625 21.1157025,73.2980769 20.6330579,73.2980769 C20.3168322,73.2979017 20.0230705,73.1352339 19.856,72.8677885 L19.856,73.1225962 C19.8569754,73.1627446 19.8416436,73.2015861 19.813478,73.230321 C19.7853124,73.2590559 19.746697,73.2752521 19.7063802,73.2752404 C19.6657385,73.2752404 19.6267614,73.2591583 19.5980234,73.2305319 C19.5692853,73.2019056 19.5531405,73.1630799 19.5531405,73.1225962 L19.5471074,70.5324519 Z M21.2870413,72.25 L21.2870413,72.2415865 C21.2870413,71.7608173 20.9576364,71.4591346 20.5727273,71.4591346 C20.3714038,71.4647788 20.1806494,71.5501527 20.0427208,71.6963439 C19.9047922,71.8425351 19.8310755,72.0374754 19.8379008,72.2379808 L19.8379008,72.2451923 C19.8297574,72.4463975 19.9029212,72.6424579 20.0410242,72.7895116 C20.1791272,72.9365653 20.3706433,73.0223392 20.5727273,73.0276442 C20.964876,73.0288462 21.2870413,72.7391827 21.2870413,72.25 Z" id="Shape" fill="#787878">
       </path>
       <path d="M22.0339339,73.8353365 C21.9782224,73.8168701 21.94042,73.7652145 21.9398182,73.7067308 C21.9404729,73.6359757 21.9978945,73.5787772 22.0689256,73.578125 C22.0945588,73.5791713 22.1198394,73.5844515 22.1437355,73.59375 C22.2142566,73.6183507 22.2886346,73.6301561 22.3633388,73.6286058 C22.5515702,73.6286058 22.6613719,73.515625 22.7723802,73.2680288 L22.7880661,73.2367788 L21.943438,71.4447115 C21.9315539,71.4190372 21.9249878,71.3912399 21.9241322,71.3629808 C21.9241204,71.3228206 21.9403798,71.2843552 21.9692268,71.2562991 C21.9980738,71.2282429 22.0370668,71.2129707 22.0773719,71.2139423 C22.1498373,71.2149434 22.2126367,71.2641995 22.2306116,71.3341346 L22.937686,72.9230769 L23.5663306,71.3305288 C23.5836593,71.2647599 23.6428699,71.2185585 23.711124,71.2175481 C23.7937567,71.2175481 23.8607438,71.2842749 23.8607438,71.3665865 C23.8593844,71.3920808 23.8540938,71.4172148 23.8450579,71.4411058 L23.046281,73.3173077 C22.8701157,73.7355769 22.673438,73.8882212 22.3669587,73.8882212 C22.2536827,73.8903715 22.1409235,73.8724653 22.0339339,73.8353365 Z" id="Shape" fill="#787878">
       </path>
       <path d="M25.609124,70.6730769 C25.6091013,70.5881712 25.6771494,70.5187863 25.7623636,70.5168269 L26.7795372,70.5168269 C27.04315,70.4994264 27.3030949,70.585738 27.5035041,70.7572115 C27.6191836,70.8738179 27.6827054,71.0320054 27.6796694,71.1959135 L27.6796694,71.2043269 C27.6850548,71.4864255 27.5101024,71.7408345 27.2440826,71.8377404 C27.5698678,71.9350962 27.8329091,72.1237981 27.8329091,72.4987981 L27.8329091,72.5060096 C27.8329091,72.9759615 27.4359339,73.2536058 26.8350413,73.2536058 L25.7671901,73.2536058 C25.6819758,73.2516464 25.6139277,73.1822615 25.6139504,73.0973558 L25.609124,70.6730769 Z M26.7288595,71.7367788 C27.1017025,71.7367788 27.361124,71.5685096 27.361124,71.2475962 L27.361124,71.2403846 C27.361124,70.9699519 27.1451405,70.7944712 26.7578182,70.7944712 L25.9216364,70.7944712 L25.9216364,71.7379808 L26.7288595,71.7367788 Z M26.8386612,72.9771635 C27.2549421,72.9771635 27.5143636,72.7932692 27.5143636,72.4879808 L27.5143636,72.4759615 C27.5143636,72.1790865 27.2633884,72.0060096 26.7843636,72.0060096 L25.9168099,72.0060096 L25.9168099,72.9675481 L26.8386612,72.9771635 Z" id="Shape" fill="#787878">
       </path>
       <path d="M28.4446612,70.6574519 C28.4459551,70.5736885 28.5138107,70.5060966 28.5979008,70.5048077 L28.6413388,70.5048077 C28.7055296,70.5066225 28.7644901,70.540506 28.7981983,70.5949519 L30.4681488,72.7163462 L30.4681488,70.6502404 C30.4681488,70.566933 30.5359462,70.499399 30.6195785,70.499399 C30.7032109,70.499399 30.7710083,70.566933 30.7710083,70.6502404 L30.7710083,73.1225962 C30.7726797,73.1607056 30.758466,73.1978088 30.7317326,73.2251212 C30.7049991,73.2524336 30.6681229,73.2675267 30.6298347,73.2668269 L30.6141488,73.2668269 C30.549029,73.2618218 30.4898435,73.2272464 30.4536694,73.1730769 L28.7487273,71.0012019 L28.7487273,73.1213942 C28.7487273,73.1752847 28.7198649,73.2250815 28.6730124,73.2520267 C28.6261599,73.2789719 28.5684352,73.2789719 28.5215826,73.2520267 C28.4747301,73.2250815 28.4458678,73.1752847 28.4458678,73.1213942 L28.4446612,70.6574519 Z" id="Shape" fill="#787878">
       </path>
       <path d="M31.5480661,70.6730769 C31.5480434,70.5881712 31.6160915,70.5187863 31.7013058,70.5168269 L32.5785124,70.5168269 C33.1987107,70.5168269 33.6077521,70.8449519 33.6077521,71.3858173 L33.6077521,71.3942308 C33.6077521,71.9855769 33.1130413,72.2896635 32.5218017,72.2896635 L31.8545455,72.2896635 L31.8545455,73.1189904 C31.8597252,73.1774219 31.8313576,73.2337625 31.7812456,73.2645705 C31.7311336,73.2953784 31.6678581,73.2953784 31.6177461,73.2645705 C31.5676341,73.2337625 31.5392665,73.1774219 31.5444463,73.1189904 L31.5480661,70.6730769 Z M32.5374876,72.0072115 C32.9935868,72.0072115 33.2916198,71.7668269 33.2916198,71.40625 L33.2916198,71.3942308 C33.2916198,71.0024038 32.9972066,70.7992788 32.5531736,70.7992788 L31.8545455,70.7992788 L31.8545455,72.0012019 L32.5374876,72.0072115 Z" id="Shape" fill="#787878">
       </path>
       <path d="M35.353719,70.6730769 C35.3536963,70.5881712 35.4217444,70.5187863 35.5069587,70.5168269 L36.3829587,70.5168269 C37.003157,70.5168269 37.4121983,70.8449519 37.4121983,71.3858173 L37.4121983,71.3942308 C37.4121983,71.9855769 36.9174876,72.2896635 36.3262479,72.2896635 L35.6589917,72.2896635 L35.6589917,73.1189904 C35.6641715,73.1774219 35.6358039,73.2337625 35.5856919,73.2645705 C35.5355799,73.2953784 35.4723044,73.2953784 35.4221924,73.2645705 C35.3720804,73.2337625 35.3437128,73.1774219 35.3488926,73.1189904 L35.353719,70.6730769 Z M36.3431405,72.0072115 C36.7992397,72.0072115 37.0972727,71.7668269 37.0972727,71.40625 L37.0972727,71.3942308 C37.0972727,71.0024038 36.8028595,70.7992788 36.3588264,70.7992788 L35.6638182,70.7992788 L35.6638182,72.0012019 L36.3431405,72.0072115 Z" id="Shape" fill="#787878">
       </path>
       <path d="M37.5509587,73.0528846 L38.6670744,70.6237981 C38.6955287,70.5402188 38.7751772,70.4847302 38.8637521,70.4867788 L38.879438,70.4867788 C38.9667302,70.485294 39.0446846,70.5409686 39.0712893,70.6237981 L40.1861983,73.0492788 C40.1976492,73.0738304 40.2042058,73.100363 40.2055041,73.1274038 C40.2055041,73.1669313 40.1897407,73.2048398 40.1616815,73.23279 C40.1336223,73.2607401 40.0955659,73.2764423 40.0558843,73.2764423 C39.986312,73.273836 39.9254711,73.2289791 39.9026446,73.1634615 L39.6154711,72.5336538 L38.1072066,72.5336538 L37.8200331,73.171875 C37.798536,73.2357748 37.7380627,73.2785246 37.6704132,73.2776442 C37.5924452,73.2776442 37.5292397,73.2146843 37.5292397,73.1370192 C37.5294376,73.1076238 37.5368967,73.0787288 37.5509587,73.0528846 Z M39.4948099,72.2512019 L38.8625455,70.8509615 L38.230281,72.2512019 L39.4948099,72.2512019 Z" id="Shape" fill="#787878">
       </path>
       <path d="M40.8003636,70.6730769 C40.8003409,70.5881712 40.8683891,70.5187863 40.9536033,70.5168269 L41.982843,70.5168269 C42.2695934,70.5016053 42.5507234,70.6001371 42.7647273,70.7908654 C42.9046834,70.9355035 42.9810943,71.1296805 42.9770909,71.3305288 L42.9770909,71.3377404 C42.9770909,71.7872596 42.6706116,72.0492788 42.2422645,72.1322115 L42.9252066,73.0084135 C42.9558923,73.0382948 42.9740113,73.0786891 42.9758843,73.1213942 C42.9715167,73.2052174 42.9032539,73.2716457 42.8190248,73.2740385 C42.7603023,73.2718248 42.706314,73.2413503 42.6742314,73.1923077 L41.9007934,72.1911058 L41.1116694,72.1911058 L41.1116694,73.1177885 C41.1168492,73.17622 41.0884816,73.2325606 41.0383696,73.2633685 C40.9882576,73.2941765 40.9249821,73.2941765 40.8748701,73.2633685 C40.8247581,73.2325606 40.7963905,73.17622 40.8015702,73.1177885 L40.8003636,70.6730769 Z M41.9550909,71.9134615 C42.3677521,71.9134615 42.6621653,71.7019231 42.6621653,71.3497596 L42.6621653,71.3413462 C42.6621653,71.0048077 42.4027438,70.8016827 41.9587107,70.8016827 L41.1140826,70.8016827 L41.1140826,71.9122596 L41.9550909,71.9134615 Z" id="Shape" fill="#787878">
       </path>
       <path d="M43.6672727,70.6538462 C43.662093,70.5954146 43.6904606,70.539074 43.7405726,70.5082661 C43.7906845,70.4774581 43.8539601,70.4774581 43.9040721,70.5082661 C43.9541841,70.539074 43.9825516,70.5954146 43.9773719,70.6538462 L43.9773719,73.1189904 C43.9825516,73.1774219 43.9541841,73.2337625 43.9040721,73.2645705 C43.8539601,73.2953784 43.7906845,73.2953784 43.7405726,73.2645705 C43.6904606,73.2337625 43.662093,73.1774219 43.6672727,73.1189904 L43.6672727,70.6538462 Z" id="Shape" fill="#787878">
       </path>
       <path d="M44.7833884,70.6730769 C44.7833657,70.5881712 44.8514139,70.5187863 44.9366281,70.5168269 L45.9538017,70.5168269 C46.2173977,70.4995563 46.4772945,70.5858519 46.6777686,70.7572115 C46.7934481,70.8738179 46.8569699,71.0320054 46.8539339,71.1959135 L46.8539339,71.2043269 C46.8593193,71.4864255 46.6843669,71.7408345 46.4183471,71.8377404 C46.7441322,71.9350962 47.0071736,72.1237981 47.0071736,72.4987981 L47.0071736,72.5060096 C47.0071736,72.9759615 46.6101983,73.2536058 46.0093058,73.2536058 L44.9414545,73.2536058 C44.8562403,73.2516464 44.7881922,73.1822615 44.7882149,73.0973558 L44.7833884,70.6730769 Z M45.903124,71.7367788 C46.2759669,71.7367788 46.5353884,71.5685096 46.5353884,71.2475962 L46.5353884,71.2403846 C46.5353884,70.9699519 46.319405,70.7944712 45.9320826,70.7944712 L45.0959008,70.7944712 L45.0959008,71.7379808 L45.903124,71.7367788 Z M46.0129256,72.9771635 C46.4292066,72.9771635 46.6886281,72.7932692 46.6886281,72.4879808 L46.6886281,72.4759615 C46.6886281,72.1790865 46.4376529,72.0060096 45.9586281,72.0060096 L45.0910744,72.0060096 L45.0910744,72.9675481 L46.0129256,72.9771635 Z" id="Shape" fill="#787878">
       </path>
       <path d="M47.45,73.0528846 L48.5649091,70.6237981 C48.5933634,70.5402188 48.6730119,70.4847302 48.7615868,70.4867788 L48.7772727,70.4867788 C48.864565,70.485294 48.9425193,70.5409686 48.969124,70.6237981 L50.0852397,73.0492788 C50.0966905,73.0738304 50.1032471,73.100363 50.1045455,73.1274038 C50.1045455,73.2097155 50.0375584,73.2764423 49.9549256,73.2764423 C49.8853534,73.273836 49.8245124,73.2289791 49.801686,73.1634615 L49.5145124,72.5336538 L48.0062479,72.5336538 L47.7190744,73.171875 C47.6975773,73.2357748 47.637104,73.2785246 47.5694545,73.2776442 C47.4914865,73.2776442 47.428281,73.2146843 47.428281,73.1370192 C47.4284291,73.1076174 47.4358912,73.0787105 47.45,73.0528846 Z M49.3938512,72.2512019 L48.7615868,70.8509615 L48.1293223,72.2512019 L49.3938512,72.2512019 Z" id="Shape" fill="#787878">
       </path>
       <path d="M50.5570248,72.9266827 C50.5180374,72.899277 50.4957525,72.8539743 50.4979008,72.8064904 C50.4969254,72.7663419 50.5122572,72.7275004 50.5404228,72.6987655 C50.5685884,72.6700306 50.6072038,72.6538344 50.6475207,72.6538462 C50.6822015,72.6531161 50.7158579,72.6655807 50.7416364,72.6887019 C50.9784012,72.9035983 51.2889465,73.0197616 51.6091901,73.0132212 C51.9784132,73.0132212 52.2221488,72.8173077 52.2221488,72.5480769 L52.2221488,72.5408654 C52.2221488,72.2860577 52.084595,72.1418269 51.5078347,72.0204327 C50.8755702,71.8834135 50.5847769,71.6802885 50.5847769,71.2295673 L50.5847769,71.2223558 C50.5847769,70.7920673 50.9660661,70.4747596 51.4885289,70.4747596 C51.8027065,70.4645376 52.1112185,70.5597794 52.3645289,70.7451923 C52.4037928,70.7731681 52.4282002,70.8173727 52.4308926,70.8653846 C52.4308926,70.9476963 52.3639055,71.0144231 52.2812727,71.0144231 C52.2488502,71.0155676 52.2169812,71.0058324 52.1907769,70.9867788 C51.9875377,70.8297262 51.7373039,70.7450874 51.4800826,70.7463942 C51.1180992,70.7463942 50.894876,70.9423077 50.894876,71.1887019 L50.894876,71.1971154 C50.894876,71.4555288 51.0360496,71.5997596 51.640562,71.7295673 C52.2450744,71.859375 52.5358678,72.0901442 52.5358678,72.5048077 L52.5358678,72.5120192 C52.5358678,72.9819712 52.1425124,73.2872596 51.597124,73.2872596 C51.2185967,73.292935 50.8502245,73.1652294 50.5570248,72.9266827 Z" id="Shape" fill="#787878">
       </path>
       <path d="M54.3445785,70.6730769 C54.3445558,70.5881712 54.4126039,70.5187863 54.4978182,70.5168269 L56.1991405,70.5168269 C56.2771085,70.5168269 56.340314,70.5797869 56.340314,70.6574519 C56.3403386,70.7357212 56.2776906,70.799726 56.1991405,70.8016827 L54.6595041,70.8016827 L54.6595041,71.7800481 L56.026595,71.7800481 C56.104563,71.7800481 56.1677686,71.843008 56.1677686,71.9206731 C56.1677686,71.9983381 56.104563,72.0612981 56.026595,72.0612981 L54.6595041,72.0612981 L54.6595041,73.1177885 C54.6646839,73.17622 54.6363163,73.2325606 54.5862043,73.2633685 C54.5360923,73.2941765 54.4728168,73.2941765 54.4227048,73.2633685 C54.3725928,73.2325606 54.3442252,73.17622 54.349405,73.1177885 L54.3445785,70.6730769 Z" id="Shape" fill="#787878">
       </path>
       <path d="M56.7409091,71.8942308 L56.7409091,71.8858173 C56.7394003,71.3868478 57.0052416,70.9249792 57.4382931,70.6741929 C57.8713446,70.4234065 58.4058154,70.4218029 58.8403757,70.6699861 C59.274936,70.9181693 59.5435656,71.3784343 59.5450744,71.8774038 L59.5450744,71.8858173 C59.5465832,72.3847868 59.2807419,72.8466554 58.8476904,73.0974418 C58.4146389,73.3482281 57.880168,73.3498317 57.4456078,73.1016485 C57.0110475,72.8534653 56.7424179,72.3932003 56.7409091,71.8942308 Z M59.2229091,71.8942308 L59.2229091,71.8858173 C59.2229091,71.2632212 58.7668099,70.7548077 58.1369587,70.7548077 C57.5071074,70.7548077 57.0606612,71.2560096 57.0606612,71.8774038 L57.0606612,71.8858173 C57.0606612,72.5072115 57.5167603,73.0168269 58.1466116,73.0168269 C58.7764628,73.0168269 59.2229091,72.5168269 59.2229091,71.8942308 Z" id="Shape" fill="#787878">
       </path>
       <path d="M60.2014711,70.6730769 C60.2014484,70.5881712 60.2694965,70.5187863 60.3547107,70.5168269 L61.3839504,70.5168269 C61.6707008,70.5016053 61.9518308,70.6001371 62.1658347,70.7908654 C62.3057909,70.9355035 62.3822017,71.1296805 62.3781983,71.3305288 L62.3781983,71.3377404 C62.3781983,71.7872596 62.071719,72.0492788 61.6433719,72.1322115 L62.326314,73.0084135 C62.3569998,73.0382948 62.3751187,73.0786891 62.3769917,73.1213942 C62.372064,73.2049641 62.3041202,73.271082 62.2201322,73.2740385 C62.1614098,73.2718248 62.1074214,73.2413503 62.0753388,73.1923077 L61.2958678,72.1911058 L60.5067438,72.1911058 L60.5067438,73.1177885 C60.5119235,73.17622 60.483556,73.2325606 60.433444,73.2633685 C60.383332,73.2941765 60.3200564,73.2941765 60.2699445,73.2633685 C60.2198325,73.2325606 60.1914649,73.17622 60.1966446,73.1177885 L60.2014711,70.6730769 Z M61.3561983,71.9134615 C61.7688595,71.9134615 62.0632727,71.7019231 62.0632727,71.3497596 L62.0632727,71.3413462 C62.0632727,71.0048077 61.8038512,70.8016827 61.3598182,70.8016827 L60.5151901,70.8016827 L60.5151901,71.9122596 L61.3561983,71.9134615 Z" id="Shape" fill="#787878">
       </path>
       <path d="M63.7416694,70.8028846 L62.9440992,70.8028846 C62.8655246,70.8029091 62.8012701,70.7405045 62.7993058,70.6622596 C62.8005975,70.5831423 62.8646732,70.5193156 62.9440992,70.5180288 L64.8529587,70.5180288 C64.9323847,70.5193156 64.9964603,70.5831423 64.9977521,70.6622596 C64.9964299,70.7407821 64.9317957,70.8035556 64.8529587,70.8028846 L64.0553884,70.8028846 L64.0553884,73.1189904 C64.0553884,73.2052849 63.98516,73.2752404 63.8985289,73.2752404 C63.8118978,73.2752404 63.7416694,73.2052849 63.7416694,73.1189904 L63.7416694,70.8028846 Z" id="Shape" fill="#787878">
       </path>
       <path d="M65.5877851,70.6538462 C65.5826054,70.5954146 65.610973,70.539074 65.6610849,70.5082661 C65.7111969,70.4774581 65.7744725,70.4774581 65.8245845,70.5082661 C65.8746965,70.539074 65.903064,70.5954146 65.8978843,70.6538462 L65.8978843,73.1189904 C65.903064,73.1774219 65.8746965,73.2337625 65.8245845,73.2645705 C65.7744725,73.2953784 65.7111969,73.2953784 65.6610849,73.2645705 C65.610973,73.2337625 65.5826054,73.1774219 65.5877851,73.1189904 L65.5877851,70.6538462 Z" id="Shape" fill="#787878">
       </path>
       <path d="M66.6049587,72.9266827 C66.5659712,72.899277 66.5436863,72.8539743 66.5458347,72.8064904 C66.5448593,72.7663419 66.5601911,72.7275004 66.5883567,72.6987655 C66.6165223,72.6700306 66.6551377,72.6538344 66.6954545,72.6538462 C66.7301354,72.6531161 66.7637918,72.6655807 66.7895702,72.6887019 C67.0263351,72.9035983 67.3368804,73.0197616 67.657124,73.0132212 C68.0263471,73.0132212 68.2700826,72.8173077 68.2700826,72.5480769 L68.2700826,72.5408654 C68.2700826,72.2860577 68.1325289,72.1418269 67.554562,72.0204327 C66.9222975,71.8834135 66.6315041,71.6802885 66.6315041,71.2295673 L66.6315041,71.2223558 C66.6315041,70.7920673 67.0127934,70.4747596 67.5352562,70.4747596 C67.8494337,70.4645376 68.1579458,70.5597794 68.4112562,70.7451923 C68.45052,70.7731681 68.4749274,70.8173727 68.4776198,70.8653846 C68.4776198,70.9476963 68.4106328,71.0144231 68.328,71.0144231 C68.2955775,71.0155676 68.2637084,71.0058324 68.2375041,70.9867788 C68.034265,70.8297262 67.7840311,70.7450874 67.5268099,70.7463942 C67.1648264,70.7463942 66.9416033,70.9423077 66.9416033,71.1887019 L66.9416033,71.1971154 C66.9416033,71.4555288 67.0827769,71.5997596 67.6872893,71.7295673 C68.2918017,71.859375 68.582595,72.0901442 68.582595,72.5048077 L68.582595,72.5120192 C68.582595,72.9819712 68.1892397,73.2872596 67.6438512,73.2872596 C67.2657367,73.2926507 66.8978396,73.1649616 66.6049587,72.9266827 Z" id="Shape" fill="#787878">
       </path>
      </g>
     </g>
    </g>
   </g>
  </g>
 </g>
</svg>