<svg version="1.1" id="Layer_1" xmlns:x="ns_extend;" xmlns:i="ns_ai;" xmlns:graph="ns_graphs;" xmlns="http://www.w3.org/2000/svg" xmlns:xlink="http://www.w3.org/1999/xlink" x="0px" y="0px" viewBox="0 0 83.4 57" style="enable-background:new 0 0 83.4 57;" xml:space="preserve">
 <metadata>
  <sfw xmlns="ns_sfw;">
   <slices>
   </slices>
   <sliceSourceBounds bottomLeftOrigin="true" height="57" width="83.4" x="133.1" y="188.4">
   </sliceSourceBounds>
  </sfw>
 </metadata>
 <g>
  <path d="M73.7,23.2c-3.8,0-6.6,1.8-7.9,4.4c0-6.2,2.2-11.6,7.3-11.6c3.3,0,4.6,1.9,5.2,4.9l4.7-0.9c-1.1-5.3-4.5-7.9-9.9-7.9
		c-6.9,0-12,5.3-12,17.1c0,10.5,4.3,15.7,11.7,15.7c6.1,0,10.7-4.2,10.7-11C83.4,28.5,80.6,23.2,73.7,23.2L73.7,23.2z M72.8,41
		c-3.8,0-6.4-3.5-6.9-8.1c1.2-3.9,3.7-5.9,6.7-5.9c3.9,0,6.1,2.9,6.1,6.9C78.7,38.3,76.2,41,72.8,41L72.8,41z M47.5,34.4
		c-1.5,1.5-5,4.3-7.4,6h14.5v4.2H33.3v-3.8c2.5-1.8,7.6-5.6,10.8-8.8c3.1-3.1,5.1-5.9,5.1-10c0-4.1-2.2-5.7-5.2-5.7
		c-3.1,0-5.6,1.8-5.6,5.5c0,0.8,0.1,1.7,0.3,2.8L33.9,24c-0.2-0.8-0.3-1.7-0.3-2.5c0-5,3.5-9.3,10.6-9.3c5.8,0,10.1,3,10.1,9.6
		c0,6-4.4,10.4-6.4,12.3L47.5,34.4z M0,0h25.8v4.2H0V0z M21,12.5v21.9c0,1.9,0,3.1,0.1,4.3H21c-0.5-1.3-1-2.4-1.9-3.9l-13-22.3H0.3
		v32.1h4.6V22.6h0c0-1.9,0-3.1-0.1-4.3h0.1c0.5,1.3,1,2.4,1.9,3.9l13,22.3h5.9V12.5H21z M0,52.9h25.8V57H0V52.9z M0,52.9">
  </path>
 </g>
</svg>