<svg version="1.1" id="Layer_1" xmlns:x="ns_extend;" xmlns:i="ns_ai;" xmlns:graph="ns_graphs;" xmlns="http://www.w3.org/2000/svg" xmlns:xlink="http://www.w3.org/1999/xlink" x="0px" y="0px" viewBox="0 0 77.9 77.5" style="enable-background:new 0 0 77.9 77.5;" xml:space="preserve">
 <style type="text/css">
  .st0{clip-path:url(#SVGID_2_);fill:url(#SVGID_3_);}
 </style>
 <metadata>
  <sfw xmlns="ns_sfw;">
   <slices>
   </slices>
   <sliceSourceBounds bottomLeftOrigin="true" height="154.9" width="154.9" x="-20.1" y="-290.3">
   </sliceSourceBounds>
  </sfw>
 </metadata>
 <g>
  <g>
   <defs>
    <path id="SVGID_1_" d="M57.3,23.1c0.1-0.1,0.3-0.2,0.4-0.2h8.9c0.3,0,0.4,0.3,0.3,0.5L54.8,39.9c-0.1,0.2-0.1,0.5,0,0.6L66.9,57
				c0.3,0.4,0,0.9-0.4,0.9H58c-0.2,0-0.3-0.1-0.4-0.2l-8-10.7l-7.9,10.7c-0.1,0.1-0.3,0.2-0.5,0.2h-8.4c-0.5,0-0.8-0.5-0.5-0.9
				l12.1-16.3c0.2-0.2,0.2-0.5,0-0.7L32.3,23.5c-0.2-0.2,0-0.5,0.3-0.5h8.9c0.2,0,0.4,0.1,0.5,0.2l7.7,10.4L57.3,23.1z M22.7,0
				L0.6,22.1C0.2,22.5,0,23,0,23.6v12.6h13V23.5c0-0.4,0.3-0.6,0.6-0.6h7.1c0.4,0,0.6,0.3,0.6,0.6v12.7H34c0.4,0,0.6,0.3,0.6,0.6
				v7.1c0,0.4-0.3,0.6-0.6,0.6H21.4v12.7c0,0.3-0.3,0.6-0.6,0.6h-7.1c-0.4,0-0.6-0.3-0.6-0.6V44.6H0v30.7c0,1.2,1,2.2,2.2,2.2h51.7
				c0.6,0,1.1-0.2,1.5-0.6l22.1-22V1.5C77.5,0.7,76.8,0,76,0H22.7z">
    </path>
   </defs>
   <clipPath id="SVGID_2_">
    <use href="#SVGID_1_" style="overflow:visible;">
    </use>
   </clipPath>
   <linearGradient id="SVGID_3_" gradientUnits="userSpaceOnUse" x1="41.1735" y1="316.3269" x2="43.8499" y2="316.3269" gradientTransform="matrix(-28.671 28.6766 28.6766 28.671 -7812.9863 -10250.3906)">
    <stop offset="0" style="stop-color:#46B8E5">
    </stop>
    <stop offset="5.000000e-02" style="stop-color:#46B8E5">
    </stop>
    <stop offset="0.1462" style="stop-color:#3596C7">
    </stop>
    <stop offset="0.2702" style="stop-color:#2270A7">
    </stop>
    <stop offset="0.3942" style="stop-color:#13538E">
    </stop>
    <stop offset="0.5164" style="stop-color:#083E7C">
    </stop>
    <stop offset="0.6359" style="stop-color:#023171">
    </stop>
    <stop offset="0.75" style="stop-color:#002D6D">
    </stop>
    <stop offset="1" style="stop-color:#002D6D">
    </stop>
   </linearGradient>
   <polyline class="st0" points="38.7,-38.7 116.2,38.7 38.7,116.2 -38.7,38.7 38.7,-38.7 		">
   </polyline>
  </g>
 </g>
</svg>